<svg width="305" height="458" viewBox="0 0 305 458" fill="none" xmlns="http://www.w3.org/2000/svg">
	<path d="M12.1383 47.0737C12.3348 48.0925 12.7524 49.0558 13.3615 49.8958C13.9707 50.7358 14.7566 51.4321 15.6639 51.9355C16.5712 52.4389 17.5779 52.7372 18.613 52.8095C19.6481 52.8818 20.6865 52.7262 21.6549 52.3538L50.93 86.4096L54.6363 73.8376L25.6128 42.6802C24.8793 41.0946 23.5897 39.8331 21.9883 39.1348C20.3868 38.4366 18.5849 38.35 16.9239 38.8916C15.263 39.4331 13.8583 40.5652 12.9763 42.0732C12.0943 43.5813 11.7961 45.3605 12.1383 47.0737Z" fill="#FFB8B8"/>
	<path d="M130.123 424.167H120.435L115.826 386.798H130.125L130.123 424.167Z" fill="#FFB6B6"/>
	<path d="M129.865 421.002L119.521 416.795L119.224 416.673L113.513 421.002C110.289 421.003 107.196 422.284 104.916 424.564C102.636 426.844 101.355 429.937 101.354 433.161V433.556H132.591V421.002H129.865Z" fill="#2F2E41"/>
	<path d="M199.235 424.167H189.547L184.938 386.798H199.237L199.235 424.167Z" fill="#FFB6B6"/>
	<path d="M198.977 421.002L188.633 416.795L188.337 416.673L182.625 421.002C179.401 421.003 176.308 422.284 174.028 424.564C171.748 426.844 170.467 429.937 170.466 433.161V433.556H201.703V421.002H198.977Z" fill="#2F2E41"/>
	<path d="M176.37 201.017C176.37 201.017 188.522 213.659 188.522 224.046C188.522 234.434 185.484 248.696 188.522 251.818C191.56 254.94 195.357 258.737 190.8 263.294C186.243 267.851 183.965 270.129 187.003 273.167C190.041 276.205 188.522 329.368 188.522 329.368L204.471 400.758H184.377L158.902 329.368L152.067 270.129L129.961 327.09L132.402 401.371L111.396 400.758L102.701 321.773C102.701 321.773 115.612 246.639 113.334 244.714C111.055 242.788 113.334 238.901 113.334 238.901L119.41 210.131L176.37 201.017Z" fill="#2F2E41"/>
	<path d="M152.579 111.384C152.579 111.384 156.71 95.1028 137.675 90.4347C118.639 85.7666 64.2255 79.7693 64.2255 79.7693L36.7264 50.5894L27.4084 64.1214L58.2357 102.43L131.278 117.433L152.579 111.384Z" fill="#3F3D56"/>
	<path d="M31.9372 63.1237C32.7911 62.0172 33.4593 60.7793 33.9157 59.4583L37.8593 49.7679L36.8356 49.7252C35.419 49.4587 33.9621 49.4945 32.5603 49.8304C31.1586 50.1663 29.8436 50.7946 28.7016 51.6741C27.5596 52.5537 26.6164 53.6646 25.9338 54.9342C25.2511 56.2037 24.8445 57.6032 24.7405 59.0408C24.6111 60.2844 24.8344 61.5392 25.3847 62.6618C25.665 63.2184 26.0731 63.7007 26.5757 64.0692C27.0782 64.4377 27.6608 64.6819 28.2759 64.782C28.9744 64.8193 29.6716 64.6881 30.3088 64.3995C30.946 64.1109 31.5045 63.6734 31.9372 63.1237Z" fill="#E6E6E6"/>
	<path d="M115.531 214.011L113.253 230.527C113.253 230.527 117.81 235.421 120.088 234.809C122.367 234.197 130.721 230.636 130.721 230.636C130.721 230.636 140.594 236.033 145.91 236.644C151.227 237.256 179.327 233.586 180.087 231.75C180.846 229.915 189.673 222.732 189.673 222.732L186.162 201.776L115.531 214.011Z" fill="#E6E6E6"/>
	<path d="M189.527 156.231C189.527 156.231 187.598 172.157 189.117 173.623C190.636 175.081 187.598 184.309 184.56 190.384C181.522 196.46 186.839 197.22 186.839 201.776C186.839 206.333 189.117 223.042 189.117 223.042C189.117 223.042 165.573 224.561 161.776 220.763C157.979 216.966 151.903 220.004 143.549 228.358C135.194 236.712 117.051 229.877 113.253 226.08C109.456 222.282 116.207 208.612 118.486 205.961C120.764 203.311 116.291 206.379 114.013 197.979C111.734 189.579 116.207 190.384 120.005 186.587C123.802 182.79 120.005 175.954 116.967 169.119C113.929 162.284 116.207 111.399 116.207 99.2477C116.207 87.0961 132.916 85.5771 132.916 85.5771L139.531 77.2609L144.391 71.1472L153.915 70.7674L154.166 70.7598L163.378 70.3877L167.852 75.5977L177.725 87.0961L189.117 89.3745C198.231 92.4124 195.952 111.399 195.952 111.399L189.527 156.231Z" fill="#3F3D56"/>
	<path d="M153.445 67.4731C164.227 67.4731 172.968 58.7326 172.968 47.9507C172.968 37.1687 164.227 28.4282 153.445 28.4282C142.663 28.4282 133.923 37.1687 133.923 47.9507C133.923 58.7326 142.663 67.4731 153.445 67.4731Z" fill="#FFB6B6"/>
	<path d="M176.081 41.3831C170.711 38.0901 171.4 29.4797 166.226 26.473C163.654 24.9907 160.763 24.1515 157.797 24.027C154.832 23.9024 151.88 24.4962 149.193 25.7577C145.549 24.1987 141.184 25.4428 138.268 28.2581C135.353 31.0733 133.775 35.2264 133.31 39.4031C132.974 43.5995 133.275 47.8226 134.204 51.9288C134.493 50.279 134.783 48.6293 135.072 46.9795L150.463 43.6158C149.1 44.8399 147.738 46.064 146.375 47.2881C153.345 48.8749 160.659 47.7312 166.812 44.0921C173.512 47.0956 172.297 53.8411 166.416 62.7931C168.695 66.5904 182.199 45.1353 176.081 41.3831Z" fill="#2F2E41"/>
	<path d="M167.852 75.5978C167.808 75.6332 167.762 75.6661 167.715 75.6965C166.106 76.656 164.264 77.1552 162.391 77.1395C159.939 77.3441 157.505 76.5807 155.609 75.0129C154.614 74.0712 150.657 76.061 148.06 77.1623C145.335 78.2914 142.281 78.3267 139.531 77.261L144.391 71.1472L152.402 69.3711H154.402L163.378 70.3878L167.852 75.5978Z" fill="#E6E6E6"/>
	<path d="M303.425 441.949L231.401 442.276C231.359 442.277 231.318 442.245 231.28 442.182C231.241 442.119 231.207 442.027 231.177 441.91C231.148 441.793 231.124 441.654 231.108 441.501C231.092 441.347 231.084 441.183 231.084 441.017C231.083 440.851 231.091 440.686 231.107 440.532C231.123 440.378 231.146 440.238 231.175 440.12C231.204 440.002 231.239 439.908 231.277 439.844C231.315 439.779 231.356 439.745 231.397 439.745H231.401L303.425 439.418C303.508 439.42 303.588 439.554 303.647 439.791C303.706 440.028 303.739 440.349 303.739 440.684C303.739 441.018 303.706 441.339 303.647 441.576C303.588 441.814 303.508 441.948 303.425 441.949Z" fill="#CACACA"/>
	<path d="M295.856 446.956L223.832 447.283C223.791 447.284 223.75 447.252 223.712 447.189C223.673 447.126 223.638 447.034 223.609 446.917C223.579 446.8 223.556 446.661 223.54 446.508C223.524 446.354 223.515 446.19 223.515 446.024C223.515 445.858 223.523 445.693 223.539 445.539C223.554 445.385 223.577 445.245 223.607 445.127C223.636 445.009 223.67 444.915 223.709 444.85C223.747 444.786 223.788 444.752 223.829 444.751H223.832C251.96 444.624 267.729 444.552 295.856 444.425C295.94 444.426 296.02 444.561 296.078 444.798C296.137 445.035 296.17 445.356 296.17 445.69C296.17 446.025 296.137 446.346 296.078 446.583C296.02 446.82 295.94 446.954 295.856 446.956Z" fill="#CACACA"/>
	<path d="M288.288 451.958L216.264 452.284C216.223 452.285 216.182 452.253 216.143 452.19C216.105 452.128 216.07 452.035 216.041 451.918C216.011 451.801 215.988 451.662 215.972 451.509C215.956 451.356 215.947 451.191 215.947 451.025C215.947 450.859 215.955 450.694 215.97 450.54C215.986 450.386 216.009 450.246 216.038 450.128C216.067 450.01 216.102 449.916 216.14 449.852C216.179 449.787 216.22 449.754 216.261 449.753H216.264L288.288 449.426C288.372 449.428 288.451 449.562 288.51 449.799C288.569 450.036 288.602 450.357 288.602 450.692C288.602 451.026 288.569 451.347 288.51 451.585C288.451 451.822 288.372 451.956 288.288 451.958Z" fill="#CACACA"/>
	<path opacity="0.88" d="M280.706 456.959L208.696 457.286C208.655 457.287 208.613 457.255 208.575 457.192C208.537 457.129 208.502 457.037 208.472 456.92C208.443 456.803 208.419 456.664 208.403 456.51C208.387 456.357 208.379 456.193 208.379 456.027C208.379 455.86 208.387 455.696 208.402 455.542C208.418 455.388 208.441 455.248 208.47 455.13C208.499 455.012 208.534 454.918 208.572 454.853C208.61 454.789 208.651 454.755 208.693 454.754H208.696L280.706 454.428C280.79 454.429 280.869 454.563 280.928 454.801C280.987 455.038 281.02 455.359 281.02 455.693C281.02 456.028 280.987 456.349 280.928 456.586C280.869 456.823 280.79 456.957 280.706 456.959Z" fill="#CACACA"/>
	<path d="M268.709 147.311C263.711 143.923 257.639 142.664 251.704 142.236C244.959 141.869 238.198 141.877 231.453 142.26C224.446 142.538 217.454 143.045 210.476 143.781C203.508 144.519 196.569 145.485 189.659 146.68C183.473 147.643 177.351 148.983 171.328 150.692C165.627 152.27 160.257 154.863 155.476 158.347C151.28 161.503 148.052 165.773 146.161 170.672C144.305 175.266 143.989 180.339 145.262 185.128C145.94 187.454 147.101 189.611 148.669 191.459C150.482 193.485 152.629 195.185 155.018 196.485C159.976 199.316 165.593 201.018 170.078 204.643C171.26 205.591 172.338 206.663 173.293 207.84C173.941 208.75 174.838 209.456 175.876 209.871C176.859 210.215 177.922 210.26 178.931 210C179.94 209.74 180.849 209.188 181.544 208.412C182.442 207.183 183.191 205.852 183.775 204.446L186.141 199.882C186.299 199.482 186.497 199.1 186.732 198.741C186.909 198.529 186.592 198.745 186.653 198.689C186.686 198.659 186.755 198.66 186.793 198.635C186.988 198.538 187.193 198.459 187.403 198.401C189.592 197.567 191.79 196.759 193.998 195.977C202.147 193.072 210.394 190.395 218.772 188.227C223.083 187.071 227.455 186.156 231.868 185.487C237.584 184.673 243.386 184.767 249.128 184.211C255.31 183.612 261.688 182.361 266.99 178.957C271.373 176.293 274.75 172.251 276.592 167.464C277.39 165.182 277.664 162.75 277.393 160.348C276.704 154.914 273.153 150.324 268.709 147.311Z" fill="#E6E6E6"/>
	<path d="M258.48 150.365C253.964 147.303 248.477 146.165 243.113 145.779C237.017 145.447 230.908 145.454 224.812 145.8C218.481 146.051 212.162 146.509 205.856 147.175C199.559 147.841 193.289 148.714 187.045 149.794C181.454 150.665 175.922 151.875 170.479 153.42C165.327 154.846 160.475 157.189 156.155 160.338C152.362 163.19 149.446 167.048 147.737 171.475C146.059 175.627 145.774 180.211 146.924 184.539C147.537 186.641 148.586 188.59 150.003 190.26C151.641 192.091 153.582 193.627 155.74 194.802C160.221 197.36 165.297 198.898 169.349 202.174C170.418 203.03 171.392 203.999 172.255 205.063C172.841 205.886 173.651 206.523 174.589 206.899C175.478 207.209 176.438 207.25 177.35 207.015C178.262 206.78 179.083 206.281 179.711 205.58C180.523 204.469 181.2 203.266 181.727 201.996L183.865 197.871C184.008 197.51 184.187 197.165 184.4 196.84C184.56 196.649 184.273 196.844 184.328 196.794C184.358 196.766 184.42 196.767 184.454 196.745C184.631 196.657 184.816 196.586 185.006 196.533C186.984 195.779 188.97 195.049 190.965 194.342C198.33 191.718 205.783 189.298 213.353 187.339C217.249 186.294 221.2 185.467 225.188 184.863C230.353 184.127 235.596 184.213 240.785 183.71C246.371 183.168 252.136 182.038 256.926 178.962C260.887 176.555 263.939 172.902 265.603 168.576C266.325 166.514 266.572 164.316 266.327 162.146C265.705 157.235 262.496 153.087 258.48 150.365Z" fill="white"/>
	<path d="M249.02 155.894L175.419 169.469C175.209 169.509 174.992 169.508 174.783 169.464C174.573 169.42 174.374 169.336 174.197 169.215C174.02 169.094 173.868 168.94 173.751 168.76C173.634 168.581 173.553 168.38 173.514 168.17C173.474 167.959 173.476 167.743 173.521 167.533C173.565 167.323 173.65 167.125 173.771 166.948C173.893 166.771 174.048 166.62 174.227 166.504C174.407 166.387 174.608 166.307 174.819 166.268L174.828 166.266L248.43 152.692C248.64 152.653 248.856 152.656 249.065 152.7C249.274 152.745 249.472 152.83 249.648 152.952C249.825 153.073 249.975 153.228 250.091 153.407C250.208 153.587 250.287 153.787 250.326 153.998C250.365 154.208 250.362 154.424 250.317 154.633C250.273 154.842 250.187 155.04 250.066 155.216C249.945 155.393 249.79 155.543 249.611 155.659C249.431 155.776 249.231 155.856 249.02 155.894Z" fill="#E6E6E6"/>
	<path d="M250.833 165.724L177.232 179.299C177.022 179.339 176.805 179.337 176.596 179.293C176.386 179.25 176.187 179.165 176.01 179.044C175.833 178.924 175.681 178.769 175.564 178.59C175.447 178.411 175.366 178.21 175.327 177.999C175.287 177.789 175.29 177.572 175.334 177.363C175.378 177.153 175.463 176.954 175.585 176.778C175.706 176.601 175.861 176.45 176.04 176.333C176.22 176.217 176.421 176.137 176.632 176.098L176.641 176.096L250.242 162.521C250.453 162.482 250.669 162.485 250.878 162.53C251.087 162.575 251.285 162.66 251.461 162.781C251.637 162.903 251.788 163.057 251.904 163.237C252.021 163.416 252.1 163.617 252.139 163.827C252.178 164.037 252.175 164.253 252.13 164.462C252.086 164.672 252 164.87 251.879 165.046C251.758 165.222 251.603 165.373 251.424 165.489C251.244 165.605 251.044 165.685 250.833 165.724Z" fill="#E6E6E6"/>
	<path d="M187.622 187.546L179.045 189.128C178.621 189.205 178.184 189.11 177.829 188.865C177.475 188.62 177.232 188.245 177.154 187.821C177.076 187.398 177.169 186.96 177.413 186.605C177.656 186.25 178.031 186.005 178.454 185.926L187.031 184.344C187.456 184.267 187.893 184.361 188.248 184.606C188.603 184.851 188.846 185.226 188.924 185.65C189.002 186.074 188.909 186.512 188.665 186.868C188.421 187.223 188.046 187.467 187.622 187.546Z" fill="#E6E6E6"/>
	<path d="M181.409 228.41C185.168 227.717 187.653 224.108 186.96 220.348C186.266 216.589 182.657 214.104 178.898 214.797C175.139 215.491 172.653 219.1 173.347 222.859C174.04 226.618 177.649 229.104 181.409 228.41Z" fill="#D1D3D4"/>
	<path d="M192.219 225.24C193.113 224.714 193.882 223.999 194.47 223.144C195.057 222.289 195.451 221.315 195.622 220.292C195.793 219.268 195.737 218.22 195.459 217.22C195.181 216.221 194.688 215.294 194.013 214.506L216.318 175.528L203.231 176.239L183.573 214.011C182.324 215.232 181.566 216.869 181.444 218.612C181.321 220.355 181.842 222.082 182.908 223.466C183.974 224.85 185.51 225.795 187.226 226.122C188.942 226.449 190.719 226.135 192.219 225.24Z" fill="#FFB8B8"/>
	<path d="M167.095 88.6151C167.095 88.6151 190.719 81.0203 196.795 99.2477C202.871 117.475 223.296 166.841 223.296 166.841L201.352 211.65L191.479 201.017L202.031 169.879L171.652 124.31L167.095 88.6151Z" fill="#3F3D56"/>
	<path d="M202.104 207.074C201.393 205.871 200.491 204.791 199.434 203.877L191.896 196.623L191.476 197.558C190.704 198.774 190.197 200.141 189.989 201.567C189.782 202.994 189.878 204.448 190.271 205.834C190.665 207.221 191.347 208.509 192.273 209.614C193.199 210.718 194.348 211.615 195.645 212.244C196.752 212.825 198 213.083 199.246 212.988C199.867 212.934 200.466 212.734 200.995 212.404C201.524 212.074 201.966 211.623 202.287 211.089C202.581 210.454 202.718 209.758 202.686 209.059C202.654 208.36 202.455 207.679 202.104 207.074Z" fill="#E6E6E6"/>
	</svg>
	