<svg xmlns="http://www.w3.org/2000/svg" width="266" height="410" fill="none"><path fill="#FFB8B8" d="M.138 23.074a7.097 7.097 0 0 0 9.517 5.28L38.93 62.41l3.706-12.572L13.613 18.68A7.136 7.136 0 0 0 .138 23.074Z"/><path fill="#FFB6B6" d="M118.123 400.167h-9.688l-4.609-37.369h14.299l-.002 37.369Z"/><path fill="#2F2E41" d="m117.865 397.002-10.344-4.207-.297-.122-5.711 4.329a12.164 12.164 0 0 0-12.159 12.159v.395h31.237v-12.554h-2.726Z"/><path fill="#FFB6B6" d="M187.235 400.167h-9.688l-4.609-37.369h14.299l-.002 37.369Z"/><path fill="#2F2E41" d="m186.977 397.002-10.344-4.207-.296-.122-5.712 4.329a12.164 12.164 0 0 0-12.159 12.159v.395h31.237v-12.554h-2.726ZM164.37 177.017s12.152 12.642 12.152 23.029c0 10.388-3.038 24.65 0 27.772s6.835 6.919 2.278 11.476c-4.557 4.557-6.835 6.835-3.797 9.873 3.038 3.038 1.519 56.201 1.519 56.201l15.949 71.39h-20.094l-25.475-71.39-6.835-59.239-22.106 56.961 2.441 74.281-21.006-.613-8.695-78.985s12.911-75.134 10.633-77.059c-2.279-1.926 0-5.813 0-5.813l6.076-28.77 56.96-9.114Z"/><path fill="#3F3D56" d="M140.579 87.384s4.131-16.281-14.904-20.95c-19.036-4.667-73.45-10.665-73.45-10.665L24.726 26.59l-9.318 13.532L46.236 78.43l73.042 15.003 21.301-6.049Z"/><path fill="#E6E6E6" d="M19.937 39.124a12.888 12.888 0 0 0 1.979-3.666l3.943-9.69-1.023-.043a10.23 10.23 0 0 0-12.095 9.316 6.66 6.66 0 0 0 .644 3.62 3.946 3.946 0 0 0 2.89 2.121 4.363 4.363 0 0 0 3.662-1.658ZM103.531 190.011l-2.278 16.516s4.557 4.894 6.835 4.282c2.279-.612 10.633-4.173 10.633-4.173s9.873 5.397 15.189 6.008c5.317.612 33.417-3.058 34.177-4.894.759-1.835 9.586-9.018 9.586-9.018l-3.511-20.956-70.631 12.235Z"/><path fill="#3F3D56" d="M177.527 132.231s-1.929 15.926-.41 17.392c1.519 1.458-1.519 10.686-4.557 16.761-3.038 6.076 2.279 6.836 2.279 11.392 0 4.557 2.278 21.266 2.278 21.266s-23.544 1.519-27.341-2.279c-3.797-3.797-9.873-.759-18.227 7.595-8.355 8.354-26.498 1.519-30.296-2.278-3.797-3.798 2.954-17.468 5.233-20.119 2.278-2.65-2.195.418-4.473-7.982-2.279-8.4 2.194-7.595 5.992-11.392 3.797-3.797 0-10.633-3.038-17.468-3.038-6.835-.76-57.72-.76-69.871 0-12.152 16.709-13.67 16.709-13.67l6.615-8.317 4.86-6.114 9.524-.38.251-.007 9.212-.372 4.474 5.21 9.873 11.498 11.392 2.279c9.114 3.037 6.835 22.024 6.835 22.024l-6.425 44.832Z"/><path fill="#FFB6B6" d="M141.445 43.473c10.782 0 19.523-8.74 19.523-19.522 0-10.782-8.741-19.523-19.523-19.523s-19.522 8.74-19.522 19.523c0 10.782 8.74 19.522 19.522 19.522Z"/><path fill="#2F2E41" d="M164.081 17.383c-5.37-3.293-4.681-11.903-9.855-14.91a18.427 18.427 0 0 0-17.033-.715c-3.644-1.56-8.009-.315-10.925 2.5-2.915 2.815-4.493 6.968-4.958 11.145a41.685 41.685 0 0 0 .894 12.526l.868-4.95 15.391-3.363-4.088 3.672a27.957 27.957 0 0 0 20.437-3.196c6.7 3.004 5.485 9.75-.396 18.701 2.279 3.797 15.783-17.658 9.665-21.41Z"/><path fill="#E6E6E6" d="M155.852 51.598c-.044.035-.09.068-.137.099a10.228 10.228 0 0 1-5.324 1.442 9.414 9.414 0 0 1-6.782-2.126c-.995-.942-4.952 1.048-7.549 2.15a11.46 11.46 0 0 1-8.529.098l4.86-6.114 8.011-1.776h2l8.976 1.017 4.474 5.21ZM256.709 123.311c-4.998-3.388-11.07-4.647-17.005-5.075a182.409 182.409 0 0 0-20.251.024c-7.007.278-13.999.785-20.977 1.521a319.757 319.757 0 0 0-20.817 2.899 153.854 153.854 0 0 0-18.331 4.012 49.203 49.203 0 0 0-15.852 7.655 28.072 28.072 0 0 0-9.315 12.325 22.893 22.893 0 0 0-.899 14.456 17.245 17.245 0 0 0 3.407 6.331 23.758 23.758 0 0 0 6.349 5.026c4.958 2.831 10.575 4.533 15.06 8.158 1.182.948 2.26 2.02 3.215 3.197a5.83 5.83 0 0 0 2.583 2.031 5.268 5.268 0 0 0 5.668-1.459 19.216 19.216 0 0 0 2.231-3.966l2.366-4.564c.158-.4.356-.782.591-1.141.177-.212-.14.004-.079-.052.033-.03.102-.029.14-.054.195-.097.4-.176.61-.234a297.263 297.263 0 0 1 6.595-2.424c8.149-2.905 16.396-5.582 24.774-7.75a120.019 120.019 0 0 1 13.096-2.74c5.716-.814 11.518-.72 17.26-1.276 6.182-.599 12.56-1.85 17.862-5.254a23.2 23.2 0 0 0 9.602-11.493 16.092 16.092 0 0 0 .801-7.116c-.689-5.434-4.24-10.024-8.684-13.037Z"/><path fill="#fff" d="M246.48 126.365c-4.516-3.062-10.003-4.2-15.367-4.586a164.791 164.791 0 0 0-18.301.021 288.174 288.174 0 0 0-37.767 3.994 139.045 139.045 0 0 0-16.566 3.626 44.441 44.441 0 0 0-14.324 6.918 25.36 25.36 0 0 0-8.418 11.137 20.687 20.687 0 0 0-.813 13.064 15.587 15.587 0 0 0 3.079 5.721 21.478 21.478 0 0 0 5.737 4.542c4.481 2.558 9.557 4.096 13.609 7.372a19.174 19.174 0 0 1 2.906 2.889 5.273 5.273 0 0 0 2.334 1.836 4.769 4.769 0 0 0 5.122-1.319 17.332 17.332 0 0 0 2.016-3.584l2.138-4.125c.143-.361.322-.706.535-1.031.16-.191-.127.004-.072-.046.03-.028.092-.027.126-.049.177-.088.362-.159.552-.212a268.855 268.855 0 0 1 5.959-2.191c7.365-2.624 14.818-5.044 22.388-7.003a108.26 108.26 0 0 1 11.835-2.476c5.165-.736 10.408-.65 15.597-1.153 5.586-.542 11.351-1.672 16.141-4.748a20.959 20.959 0 0 0 8.677-10.386c.722-2.062.969-4.26.724-6.43-.622-4.911-3.831-9.059-7.847-11.781Z"/><path fill="#E6E6E6" d="m237.02 131.894-73.601 13.575a1.62 1.62 0 0 1-1.222-.254 1.624 1.624 0 0 1-.676-1.682 1.626 1.626 0 0 1 1.298-1.265l.009-.002 73.602-13.574a1.62 1.62 0 0 1 1.661.715 1.622 1.622 0 0 1 .226 1.226 1.619 1.619 0 0 1-.706 1.026c-.18.117-.38.197-.591.235ZM238.833 141.724l-73.601 13.575a1.62 1.62 0 0 1-1.222-.255 1.62 1.62 0 0 1-.676-1.681 1.634 1.634 0 0 1 .706-1.03c.18-.116.381-.196.592-.235l.009-.002 73.601-13.575a1.62 1.62 0 0 1 1.219.26 1.63 1.63 0 0 1-.628 2.943ZM175.622 163.546l-8.577 1.582a1.628 1.628 0 0 1-.591-3.202l8.577-1.582a1.63 1.63 0 0 1 1.634 2.524 1.627 1.627 0 0 1-1.043.678Z"/><path fill="#D1D3D4" d="M169.409 204.41a6.921 6.921 0 1 0-2.511-13.613 6.921 6.921 0 0 0 2.511 13.613Z"/><path fill="#FFB8B8" d="M180.219 201.24a7.103 7.103 0 0 0 3.403-4.948 7.1 7.1 0 0 0-1.609-5.786l22.305-38.978-13.087.711-19.658 37.772a7.132 7.132 0 0 0 3.653 12.111 7.138 7.138 0 0 0 4.993-.882Z"/><path fill="#3F3D56" d="M155.095 64.615s23.624-7.595 29.7 10.633c6.076 18.227 26.501 67.593 26.501 67.593l-21.944 44.809-9.873-10.633 10.552-31.138-30.379-45.569-4.557-35.695Z"/><path fill="#E6E6E6" d="M190.104 183.074a12.913 12.913 0 0 0-2.67-3.197l-7.538-7.254-.42.935a10.24 10.24 0 0 0-1.205 8.276 10.227 10.227 0 0 0 5.374 6.41 6.66 6.66 0 0 0 3.601.744 3.95 3.95 0 0 0 3.041-1.899 4.357 4.357 0 0 0-.183-4.015Z"/></svg>
