<svg
	width="342"
	height="49"
	viewBox="0 0 342 49"
	fill="none"
	xmlns="http://www.w3.org/2000/svg"
>
	<path
		d="M19.7625 34.95H19.6125C19.3875 36.225 18.675 37.3 17.475 38.175C16.3 39.025 14.725 39.45 12.75 39.45C11.2 39.45 9.7625 39.1625 8.4375 38.5875C7.1375 38.0125 6 37.1625 5.025 36.0375C4.075 34.8875 3.325 33.475 2.775 31.8C2.225 30.125 1.95 28.1875 1.95 25.9875C1.95 23.7875 2.225 21.85 2.775 20.175C3.35 18.475 4.15 17.05 5.175 15.9C6.2 14.75 7.425 13.875 8.85 13.275C10.275 12.675 11.8625 12.375 13.6125 12.375C15.9625 12.375 17.9625 12.8875 19.6125 13.9125C21.2625 14.9375 22.5625 16.4125 23.5125 18.3375L19.5 20.7C19.025 19.575 18.3125 18.6375 17.3625 17.8875C16.4375 17.1375 15.1875 16.7625 13.6125 16.7625C11.6625 16.7625 10.1 17.3625 8.925 18.5625C7.775 19.7375 7.2 21.4875 7.2 23.8125V28.0125C7.2 30.3125 7.7875 32.0625 8.9625 33.2625C10.1375 34.4625 11.7125 35.0625 13.6875 35.0625C14.4625 35.0625 15.1875 34.975 15.8625 34.8C16.5375 34.6 17.125 34.3125 17.625 33.9375C18.125 33.5625 18.525 33.1 18.825 32.55C19.125 32 19.275 31.35 19.275 30.6V28.9125H14.1375V24.75H24.0375V39H19.7625V34.95ZM37.3843 39.45C35.9343 39.45 34.6343 39.2125 33.4843 38.7375C32.3593 38.2375 31.3968 37.55 30.5968 36.675C29.8218 35.775 29.2218 34.7 28.7968 33.45C28.3718 32.175 28.1593 30.75 28.1593 29.175C28.1593 27.625 28.3593 26.225 28.7593 24.975C29.1843 23.725 29.7843 22.6625 30.5593 21.7875C31.3343 20.8875 32.2843 20.2 33.4093 19.725C34.5343 19.225 35.8093 18.975 37.2343 18.975C38.7593 18.975 40.0843 19.2375 41.2093 19.7625C42.3343 20.2875 43.2593 21 43.9843 21.9C44.7093 22.8 45.2468 23.85 45.5968 25.05C45.9718 26.225 46.1593 27.4875 46.1593 28.8375V30.4125H33.1468V30.9C33.1468 32.325 33.5468 33.475 34.3468 34.35C35.1468 35.2 36.3343 35.625 37.9093 35.625C39.1093 35.625 40.0843 35.375 40.8343 34.875C41.6093 34.375 42.2968 33.7375 42.8968 32.9625L45.4843 35.85C44.6843 36.975 43.5843 37.8625 42.1843 38.5125C40.8093 39.1375 39.2093 39.45 37.3843 39.45ZM37.3093 22.575C36.0343 22.575 35.0218 23 34.2718 23.85C33.5218 24.7 33.1468 25.8 33.1468 27.15V27.45H41.1718V27.1125C41.1718 25.7625 40.8343 24.675 40.1593 23.85C39.5093 23 38.5593 22.575 37.3093 22.575ZM56.7949 39.45C54.9199 39.45 53.3449 39.1375 52.0699 38.5125C50.7949 37.8625 49.6699 36.975 48.6949 35.85L51.6199 33C52.3449 33.825 53.1324 34.475 53.9824 34.95C54.8574 35.425 55.8574 35.6625 56.9824 35.6625C58.1324 35.6625 58.9574 35.4625 59.4574 35.0625C59.9824 34.6625 60.2449 34.1125 60.2449 33.4125C60.2449 32.8375 60.0574 32.3875 59.6824 32.0625C59.3324 31.7125 58.7199 31.475 57.8449 31.35L55.8949 31.0875C53.7699 30.8125 52.1449 30.2125 51.0199 29.2875C49.9199 28.3375 49.3699 26.9625 49.3699 25.1625C49.3699 24.2125 49.5449 23.3625 49.8949 22.6125C50.2449 21.8375 50.7449 21.1875 51.3949 20.6625C52.0449 20.1125 52.8199 19.7 53.7199 19.425C54.6449 19.125 55.6699 18.975 56.7949 18.975C57.7449 18.975 58.5824 19.05 59.3074 19.2C60.0574 19.325 60.7324 19.525 61.3324 19.8C61.9324 20.05 62.4824 20.375 62.9824 20.775C63.4824 21.15 63.9699 21.575 64.4449 22.05L61.6324 24.8625C61.0574 24.2625 60.3699 23.7625 59.5699 23.3625C58.7699 22.9625 57.8949 22.7625 56.9449 22.7625C55.8949 22.7625 55.1324 22.95 54.6574 23.325C54.2074 23.7 53.9824 24.1875 53.9824 24.7875C53.9824 25.4375 54.1699 25.9375 54.5449 26.2875C54.9449 26.6125 55.6074 26.85 56.5324 27L58.5199 27.2625C62.7449 27.8625 64.8574 29.7875 64.8574 33.0375C64.8574 33.9875 64.6574 34.8625 64.2574 35.6625C63.8824 36.4375 63.3449 37.1125 62.6449 37.6875C61.9449 38.2375 61.0949 38.675 60.0949 39C59.1199 39.3 58.0199 39.45 56.7949 39.45ZM74.9153 39C73.2653 39 72.0028 38.575 71.1278 37.725C70.2778 36.85 69.8528 35.6125 69.8528 34.0125V23.25H66.9653V19.425H68.4653C69.1903 19.425 69.6778 19.2625 69.9278 18.9375C70.2028 18.5875 70.3403 18.075 70.3403 17.4V14.0625H74.6528V19.425H78.6653V23.25H74.6528V35.175H78.3653V39H74.9153ZM85.2287 16.575C84.2287 16.575 83.5037 16.35 83.0537 15.9C82.6287 15.45 82.4162 14.875 82.4162 14.175V13.425C82.4162 12.725 82.6287 12.15 83.0537 11.7C83.5037 11.25 84.2287 11.025 85.2287 11.025C86.2037 11.025 86.9162 11.25 87.3662 11.7C87.8162 12.15 88.0412 12.725 88.0412 13.425V14.175C88.0412 14.875 87.8162 15.45 87.3662 15.9C86.9162 16.35 86.2037 16.575 85.2287 16.575ZM82.8287 19.425H87.6287V39H82.8287V19.425ZM100.955 39.45C99.555 39.45 98.2925 39.2125 97.1675 38.7375C96.0675 38.2625 95.1175 37.575 94.3175 36.675C93.5425 35.775 92.9425 34.7 92.5175 33.45C92.0925 32.175 91.88 30.75 91.88 29.175C91.88 27.6 92.0925 26.1875 92.5175 24.9375C92.9425 23.6875 93.5425 22.625 94.3175 21.75C95.1175 20.85 96.0675 20.1625 97.1675 19.6875C98.2925 19.2125 99.555 18.975 100.955 18.975C102.355 18.975 103.617 19.2125 104.742 19.6875C105.867 20.1625 106.817 20.85 107.592 21.75C108.392 22.625 109.005 23.6875 109.43 24.9375C109.855 26.1875 110.067 27.6 110.067 29.175C110.067 30.75 109.855 32.175 109.43 33.45C109.005 34.7 108.392 35.775 107.592 36.675C106.817 37.575 105.867 38.2625 104.742 38.7375C103.617 39.2125 102.355 39.45 100.955 39.45ZM100.955 35.5875C102.23 35.5875 103.23 35.2 103.955 34.425C104.68 33.65 105.042 32.5125 105.042 31.0125V27.375C105.042 25.9 104.68 24.775 103.955 24C103.23 23.225 102.23 22.8375 100.955 22.8375C99.705 22.8375 98.7175 23.225 97.9925 24C97.2675 24.775 96.905 25.9 96.905 27.375V31.0125C96.905 32.5125 97.2675 33.65 97.9925 34.425C98.7175 35.2 99.705 35.5875 100.955 35.5875ZM114.323 39V19.425H119.123V22.6875H119.31C119.71 21.6375 120.335 20.7625 121.185 20.0625C122.06 19.3375 123.26 18.975 124.785 18.975C126.81 18.975 128.36 19.6375 129.435 20.9625C130.51 22.2875 131.048 24.175 131.048 26.625V39H126.248V27.1125C126.248 25.7125 125.998 24.6625 125.498 23.9625C124.998 23.2625 124.173 22.9125 123.023 22.9125C122.523 22.9125 122.035 22.9875 121.56 23.1375C121.11 23.2625 120.698 23.4625 120.323 23.7375C119.973 23.9875 119.685 24.3125 119.46 24.7125C119.235 25.0875 119.123 25.5375 119.123 26.0625V39H114.323ZM206.535 39V19.425H211.335V22.6875H211.522C211.897 21.6625 212.497 20.7875 213.322 20.0625C214.147 19.3375 215.297 18.975 216.772 18.975C218.122 18.975 219.285 19.3 220.26 19.95C221.235 20.6 221.96 21.5875 222.435 22.9125H222.51C222.86 21.8125 223.547 20.8875 224.572 20.1375C225.622 19.3625 226.935 18.975 228.51 18.975C230.435 18.975 231.91 19.6375 232.935 20.9625C233.985 22.2875 234.51 24.175 234.51 26.625V39H229.71V27.1125C229.71 24.3125 228.66 22.9125 226.56 22.9125C226.085 22.9125 225.622 22.9875 225.172 23.1375C224.747 23.2625 224.36 23.4625 224.01 23.7375C223.685 23.9875 223.422 24.3125 223.222 24.7125C223.022 25.0875 222.922 25.5375 222.922 26.0625V39H218.122V27.1125C218.122 24.3125 217.072 22.9125 214.972 22.9125C214.522 22.9125 214.072 22.9875 213.622 23.1375C213.197 23.2625 212.81 23.4625 212.46 23.7375C212.135 23.9875 211.86 24.3125 211.635 24.7125C211.435 25.0875 211.335 25.5375 211.335 26.0625V39H206.535ZM247.586 39.45C246.186 39.45 244.923 39.2125 243.798 38.7375C242.698 38.2625 241.748 37.575 240.948 36.675C240.173 35.775 239.573 34.7 239.148 33.45C238.723 32.175 238.511 30.75 238.511 29.175C238.511 27.6 238.723 26.1875 239.148 24.9375C239.573 23.6875 240.173 22.625 240.948 21.75C241.748 20.85 242.698 20.1625 243.798 19.6875C244.923 19.2125 246.186 18.975 247.586 18.975C248.986 18.975 250.248 19.2125 251.373 19.6875C252.498 20.1625 253.448 20.85 254.223 21.75C255.023 22.625 255.636 23.6875 256.061 24.9375C256.486 26.1875 256.698 27.6 256.698 29.175C256.698 30.75 256.486 32.175 256.061 33.45C255.636 34.7 255.023 35.775 254.223 36.675C253.448 37.575 252.498 38.2625 251.373 38.7375C250.248 39.2125 248.986 39.45 247.586 39.45ZM247.586 35.5875C248.861 35.5875 249.861 35.2 250.586 34.425C251.311 33.65 251.673 32.5125 251.673 31.0125V27.375C251.673 25.9 251.311 24.775 250.586 24C249.861 23.225 248.861 22.8375 247.586 22.8375C246.336 22.8375 245.348 23.225 244.623 24C243.898 24.775 243.536 25.9 243.536 27.375V31.0125C243.536 32.5125 243.898 33.65 244.623 34.425C245.348 35.2 246.336 35.5875 247.586 35.5875ZM267.366 39.45C265.491 39.45 263.916 39.1375 262.641 38.5125C261.366 37.8625 260.241 36.975 259.266 35.85L262.191 33C262.916 33.825 263.704 34.475 264.554 34.95C265.429 35.425 266.429 35.6625 267.554 35.6625C268.704 35.6625 269.529 35.4625 270.029 35.0625C270.554 34.6625 270.816 34.1125 270.816 33.4125C270.816 32.8375 270.629 32.3875 270.254 32.0625C269.904 31.7125 269.291 31.475 268.416 31.35L266.466 31.0875C264.341 30.8125 262.716 30.2125 261.591 29.2875C260.491 28.3375 259.941 26.9625 259.941 25.1625C259.941 24.2125 260.116 23.3625 260.466 22.6125C260.816 21.8375 261.316 21.1875 261.966 20.6625C262.616 20.1125 263.391 19.7 264.291 19.425C265.216 19.125 266.241 18.975 267.366 18.975C268.316 18.975 269.154 19.05 269.879 19.2C270.629 19.325 271.304 19.525 271.904 19.8C272.504 20.05 273.054 20.375 273.554 20.775C274.054 21.15 274.541 21.575 275.016 22.05L272.204 24.8625C271.629 24.2625 270.941 23.7625 270.141 23.3625C269.341 22.9625 268.466 22.7625 267.516 22.7625C266.466 22.7625 265.704 22.95 265.229 23.325C264.779 23.7 264.554 24.1875 264.554 24.7875C264.554 25.4375 264.741 25.9375 265.116 26.2875C265.516 26.6125 266.179 26.85 267.104 27L269.091 27.2625C273.316 27.8625 275.429 29.7875 275.429 33.0375C275.429 33.9875 275.229 34.8625 274.829 35.6625C274.454 36.4375 273.916 37.1125 273.216 37.6875C272.516 38.2375 271.666 38.675 270.666 39C269.691 39.3 268.591 39.45 267.366 39.45Z"
		fill="#242426"
	/>
	<path
		d="M152.869 39L150.769 32.325H141.469L139.406 39H134.381L143.156 12.825H149.306L158.006 39H152.869ZM146.194 17.325H146.006L142.669 28.0875H149.569L146.194 17.325ZM161.564 19.425H166.364V22.65H166.514C166.864 21.525 167.527 20.6375 168.502 19.9875C169.477 19.3125 170.614 18.975 171.914 18.975C174.414 18.975 176.314 19.8625 177.614 21.6375C178.939 23.3875 179.602 25.9 179.602 29.175C179.602 32.475 178.939 35.0125 177.614 36.7875C176.314 38.5625 174.414 39.45 171.914 39.45C170.614 39.45 169.477 39.1125 168.502 38.4375C167.552 37.7625 166.889 36.8625 166.514 35.7375H166.364V46.5H161.564V19.425ZM170.377 35.475C171.627 35.475 172.639 35.0625 173.414 34.2375C174.189 33.4125 174.577 32.3 174.577 30.9V27.525C174.577 26.125 174.189 25.0125 173.414 24.1875C172.639 23.3375 171.627 22.9125 170.377 22.9125C169.227 22.9125 168.264 23.2 167.489 23.775C166.739 24.35 166.364 25.1125 166.364 26.0625V32.2875C166.364 33.3125 166.739 34.1 167.489 34.65C168.264 35.2 169.227 35.475 170.377 35.475ZM184.049 19.425H188.849V22.65H188.999C189.349 21.525 190.012 20.6375 190.987 19.9875C191.962 19.3125 193.099 18.975 194.399 18.975C196.899 18.975 198.799 19.8625 200.099 21.6375C201.424 23.3875 202.087 25.9 202.087 29.175C202.087 32.475 201.424 35.0125 200.099 36.7875C198.799 38.5625 196.899 39.45 194.399 39.45C193.099 39.45 191.962 39.1125 190.987 38.4375C190.037 37.7625 189.374 36.8625 188.999 35.7375H188.849V46.5H184.049V19.425ZM192.862 35.475C194.112 35.475 195.124 35.0625 195.899 34.2375C196.674 33.4125 197.062 32.3 197.062 30.9V27.525C197.062 26.125 196.674 25.0125 195.899 24.1875C195.124 23.3375 194.112 22.9125 192.862 22.9125C191.712 22.9125 190.749 23.2 189.974 23.775C189.224 24.35 188.849 25.1125 188.849 26.0625V32.2875C188.849 33.3125 189.224 34.1 189.974 34.65C190.749 35.2 191.712 35.475 192.862 35.475Z"
		fill="#E6622E"
	/>
	<path
		d="M315.396 13.035V9.14868H327.056V43.9316H288.581V36.1589H292.467V40.0453H322.975V13.035H315.396Z"
		fill="#E6622E"
	/>
	<path d="M288.386 28.7748V9.34302H307.429V28.7748H288.386Z" fill="white" />
	<path d="M296.159 20.8079V13.0352H300.046V20.8079H296.159Z" fill="#2F2E41" />
	<path d="M300.045 24.6942V20.8079H303.932V24.6942H300.045Z" fill="#2F2E41" />
	<path d="M288.386 9.34302H284.5V28.7748H288.386V9.34302Z" fill="#E6622E" />
	<path d="M288.386 32.8556V28.7749H307.624V32.8556H288.386Z" fill="#E6622E" />
	<path d="M311.316 9.34302H307.43V28.7748H311.316V9.34302Z" fill="#E6622E" />
	<path d="M288.386 9.34313V5.26245H307.624V9.34313H288.386Z" fill="#E6622E" />
</svg>
