<svg
	width="119"
	height="396"
	viewBox="0 0 119 396"
	fill="none"
	xmlns="http://www.w3.org/2000/svg"
>
	<path
		d="M61.6547 80.0441C60.4652 78.5392 59.9696 76.3375 59.5001 74.5222C59.0936 72.9502 57.897 71.665 56.2579 71.3601C55.5727 71.2326 55.1148 70.8343 54.4391 70.6764C53.7298 70.5107 53.0094 70.3788 52.2967 70.2271C50.5334 69.8517 48.5864 69.4563 46.8244 70.0554C44.5567 70.8264 42.8529 72.6167 41.2183 74.2505C40.6176 74.8509 40.3343 75.653 39.787 76.2746C39.5402 76.5549 39.243 76.6942 39.0267 77.0167C38.7052 77.4962 38.6636 78.0952 38.3338 78.5605C38.0537 78.9557 37.6466 79.1837 37.4242 79.6246C37.1941 80.081 37.0333 80.4809 36.7298 80.9091C36.1411 81.7395 35.3798 82.3142 34.7121 83.0606C34.0213 83.8328 33.3581 84.6668 32.6805 85.4551C31.9072 86.3547 31.4722 87.4626 30.7273 88.3506C29.6204 89.67 28.6944 91.1965 27.6232 92.5728C26.9346 93.4575 26.3121 94.2457 25.428 94.9439C25.003 95.2796 24.7757 95.7994 24.3516 96.1004C23.9135 96.4113 23.1688 96.7053 22.671 96.9653C22.1082 97.2593 21.0133 97.3317 20.7276 97.9858C20.4605 98.5972 20.9455 99.0624 21.3757 99.3775C21.6705 99.5933 22.4471 99.8656 22.2075 100.34C22.0614 100.629 20.8424 100.855 20.5324 100.983C19.3772 101.461 18.6278 102.592 17.7091 103.427C16.6855 104.357 17.1966 104.547 18.0361 105.317C18.3342 105.591 18.4069 105.843 18.7987 106.011C19.1619 106.166 19.682 106.178 20.0725 106.26C20.9329 106.442 21.7926 106.626 22.6526 106.81L28.3043 108.013L34.0622 109.238C35.3727 109.517 36.684 109.793 37.9939 110.075C38.6472 110.215 39.2996 110.402 39.9646 110.469C40.5417 110.528 41.4965 110.711 42.0635 110.601C42.9078 110.438 44.2483 109.335 44.774 108.711C45.3568 108.019 45.7517 107.269 46.3809 106.596C47.7262 105.158 48.6051 103.443 49.398 101.641C49.8657 100.578 50.5032 99.6128 50.989 98.563C51.4034 97.6677 51.671 96.7129 52.0973 95.822C52.8616 94.2246 53.5422 92.5992 54.2624 90.9803C54.676 90.0506 55.1054 89.1317 55.5304 88.2092C56.0003 87.1891 56.633 86.3004 57.1935 85.3288C57.664 84.5134 58.2079 83.5863 58.8638 82.9283C59.6991 82.0902 60.5997 81.1948 61.3184 80.2623"
		fill="#E6622E"
	/>
	<path
		d="M46.2746 378.612L37.7518 381.207L23.6846 349.569L36.2633 345.738L46.2746 378.612Z"
		fill="#FFB6B6"
	/>
	<path
		d="M49.2824 387.411L23.0741 395.393L22.9732 395.062C21.2576 389.428 24.4334 383.47 30.0669 381.754L33.7486 376.664L43.7868 377.575L46.0747 376.879L49.2824 387.411Z"
		fill="#2F2E41"
	/>
	<path
		d="M84.2024 386.099L75.2933 386.098L71.0552 351.734L84.2042 351.735L84.2024 386.099Z"
		fill="#FFB6B6"
	/>
	<path
		d="M84.516 395.393L57.1191 395.392V395.045C57.1195 389.156 61.8936 384.382 67.7828 384.382L72.7878 380.585L82.1249 384.383L84.5164 384.383L84.516 395.393Z"
		fill="#2F2E41"
	/>
	<path
		d="M105.471 176.705L103.771 178.406C94.7335 178.406 85.1422 179.355 76.1993 178.214C71.5211 177.617 66.826 176.677 62.1256 176.705C58.5885 176.727 55.0506 176.705 51.5137 176.705C49.2335 176.705 46.9462 176.652 44.6667 176.698C40.51 176.782 38.1661 179.95 36.6363 183.461C34.964 187.301 31.7782 190.15 29.9785 193.924C28.1822 197.69 26.3658 201.217 24.2588 204.851C17.5282 216.457 11.9492 228.48 6.61385 240.698C5.12758 244.102 3.41932 247.365 1.75063 250.667C0.735485 252.675 0.0521948 253.696 0.00886481 255.961C-0.0414852 258.592 0.106858 260.845 0.864608 263.38C1.73772 266.3 3.04784 269.092 3.87279 271.99C4.42162 273.918 4.36848 275.656 5.12495 277.515C5.61732 278.726 6.334 280.017 6.63655 281.287C7.2823 283.998 7.71248 286.991 7.6761 289.808C7.63594 292.921 8.7505 295.297 9.61 298.271C10.6422 301.842 10.0071 305.106 11.7146 308.539C12.4233 309.963 12.6266 310.964 12.9706 312.515C13.4729 314.78 14.6495 316.739 15.3615 318.899C17.8894 326.572 17.6602 334.806 17.8611 342.748C17.9463 346.113 18.7283 349.315 18.7312 352.756C18.7335 355.532 18.3366 358.552 19.1163 361.219C19.923 363.978 20.9459 368.32 24.2215 368.081C28.2735 367.786 32.5755 366.867 36.6122 366.154C38.1266 365.886 41.0819 365.377 42.3834 364.536C44.8294 362.955 43.5233 361.602 43.7604 359.328C43.84 358.565 44.8451 357.172 44.7833 356.35C44.7013 355.259 43.7579 354.585 43.5349 353.59C43.2001 352.096 43.4062 352.059 43.6014 350.803C43.9818 348.357 44.4515 349.227 42.7511 347.017C40.9552 344.683 41.6918 341.027 41.6918 338.135V328.148C41.6918 325.69 41.6937 323.231 41.6918 320.773C41.6889 317.114 40.8022 313.673 40.8443 310.055C40.8915 306.023 41.0162 301.923 40.8816 297.896C40.8011 295.487 39.5316 293.78 39.0968 291.489C38.7225 289.516 38.3868 287.586 37.8636 285.579C37.3146 283.473 36.7897 281.627 35.9525 279.647C34.8866 277.125 35.067 274.472 34.0412 271.952C33.1376 269.732 33.2399 267.87 33.1977 265.54C33.1647 263.708 32.2637 262.028 32.2572 260.228C32.2422 256.067 37.9579 250.231 40.7369 247.361C44.3768 243.601 48.3815 240.138 51.8937 236.26C53.4293 234.564 54.9851 233.17 56.6056 231.579C58.1112 230.101 59.0842 228.198 60.5897 226.689C62.6214 224.653 64.3773 222.335 66.164 220.075C67.5659 218.303 68.4772 215.843 70.0486 214.258C70.5802 215.887 69.8263 217.748 69.7502 219.431C69.628 222.135 69.3833 224.603 68.9127 227.28C68.138 231.689 67.3688 236.047 66.7784 240.475C65.8299 247.588 64.6593 254.662 64.6525 261.791C64.6407 274.104 64.6525 286.416 64.6525 298.728C64.6525 309.423 64.4293 320.148 64.6328 330.84C64.6922 333.963 65.628 336.847 65.5362 340.041C65.8092 340.953 65.6865 341.79 65.1683 342.553C64.777 342.807 64.3856 343.061 63.9942 343.314C62.9308 344.952 62.6539 345.962 63.0862 347.867C63.5626 349.968 65.8587 352.157 65.5665 354.437C65.415 355.62 64.6705 356.255 64.7047 357.455C64.7523 359.138 65.3529 360.407 65.1155 362.212C66.8473 363.83 68.9779 362.649 70.8353 362.277C72.3329 361.977 73.8051 362.266 75.2923 362.02C77.0307 361.732 78.1696 361.209 79.9679 361.232C81.3827 361.25 82.7994 361.253 84.2145 361.238C88.3212 361.193 89.5922 359.229 90.1613 355.221C90.4728 353.027 92.0002 352.296 92.59 350.249C93.2408 347.99 92.7609 344.804 92.2903 342.598C91.6597 339.642 92.2274 336.813 91.909 333.839C91.5464 330.451 90.2204 327.25 90.1447 323.823C90.0166 318.034 89.4089 311.441 90.1204 305.712C90.2775 304.447 90.9023 303.379 91.048 302.13C91.1706 301.078 90.9281 300.201 91.2038 299.159C92.1732 295.495 92.4935 291.517 93.4599 287.747C94.3058 284.448 94.4298 281.283 95.0577 277.943C95.5218 275.475 96.0084 272.675 96.161 270.165C96.2591 268.549 95.93 266.985 96.2865 265.379C96.6786 263.614 97.6403 262.099 97.8588 260.277C98.0529 258.659 97.6979 256.965 97.7861 255.335C97.8746 253.7 98.5795 252.342 98.6918 250.728C98.8766 248.068 99.0926 245.646 99.7321 243.012C101.899 234.088 103.715 225.004 106.332 216.208C108.436 209.134 109.723 201.95 109.723 194.563C109.723 191.168 111.348 175.441 105.471 176.705Z"
		fill="#2F2E41"
	/>
	<path
		d="M88.101 52.5475C85.6998 52.5475 82.6551 52.972 80.2902 52.4214C78.0494 51.8997 75.7119 51.3938 73.3609 51.4137C71.6176 51.4284 69.0618 50.9178 67.4294 51.4105C65.5055 51.9913 64.5557 54.7292 63.8512 56.401C63.0999 58.1842 62.0137 59.475 60.8753 61.0535C58.9338 63.7457 58.5093 68.6236 54.6653 69.4828C52.1545 70.044 58.8754 69.5554 56.2744 69.5554C53.9063 69.5554 50.8527 69.1704 48.7378 70.5065C46.1584 72.1361 46.0236 76.1213 45.2798 78.7211C44.8128 80.3537 43.8488 82.1368 43.1251 83.6993C42.2135 85.6677 41.7088 87.5712 40.5421 89.3979C39.4468 91.1129 38.9485 93.2259 38.0066 95.0672C37.6253 95.8124 37.1705 96.578 36.8303 97.348C36.2533 98.6542 36.396 100.011 35.9093 101.333C35.6691 101.985 35.3838 102.161 35.1568 102.692C34.6895 103.784 34.5484 104.676 34.4404 105.885C34.2782 107.702 35.0944 108.654 35.5996 110.363C36.1938 112.374 37.2188 114.102 37.8916 116.073C38.6416 118.27 38.2697 120.385 38.8302 122.569C39.6238 125.662 41.8106 128.697 42.0044 131.92C42.1183 133.814 42.5813 135.685 42.5551 137.587C42.5238 139.858 42.5439 142.13 42.542 144.401C42.5407 145.932 42.6944 147.353 42.1305 148.799C41.4845 150.456 41.4717 151.523 41.4212 153.319C41.3497 155.864 39.9569 158.148 39.678 160.705C39.5732 161.666 39.7744 162.687 39.7204 163.654C39.6334 165.216 39.1054 166.597 39.1273 168.201C39.1805 172.092 39.0397 174.197 42.5576 176.442C44.7395 177.834 47.0772 178.297 49.4732 179.128C52.4123 180.147 56.0352 179.54 59.1404 179.54C63.0748 179.54 67.0249 179.425 70.9569 179.497C77.4117 179.615 83.693 181.238 90.162 181.24C91.1451 181.241 92.1287 181.231 93.1117 181.238C94.5784 181.249 95.5991 180.901 96.9803 180.644C98.0046 180.453 99.3221 180.674 100.369 180.674C101.914 180.672 102.864 180.441 104.31 180.09C105.65 179.765 107.262 180.098 108.331 178.914C109.664 177.439 109.643 175.461 109.975 173.715C110.33 171.853 111.189 170.721 111.152 168.726C111.126 167.376 110.904 165.7 111.111 164.359C111.285 163.235 109.996 162.233 110.225 161.136C110.466 159.977 110.274 158.628 110.274 157.431C110.275 155.202 110.716 152.32 110.159 150.167C109.762 148.63 110.889 109.226 111.389 108.107C111.916 106.929 111.939 105.659 112.2 104.422C112.982 100.709 111.591 96.3645 113.046 92.8126C114.151 90.1148 113.613 86.6536 113.613 83.7286C113.613 81.5613 113.965 79.0933 113.653 76.9568C113.279 74.3868 111.315 74.4291 109.174 73.652C107.541 73.0591 106.373 72.927 104.666 72.955C102.899 72.9839 101.307 72.3919 99.5233 72.3769C98.3778 72.3673 97.026 72.6204 95.9099 72.3024C94.0917 71.7842 92.3142 69.352 91.4622 67.7285C90.5467 65.984 90.655 64.1388 90.2446 62.3134C89.9659 61.0738 89.9622 60.0905 89.8291 58.8262C89.6414 57.0424 88.658 53.9322 87.5341 52.5475"
		fill="#E6622E"
	/>
	<path
		d="M101.567 111.015L87.8036 94.4408L68.1869 114.296L27.8226 95.0092C27.2095 91.1251 24.0894 87.9593 19.9922 87.4769C15.0557 86.8957 10.5828 90.4263 10.0016 95.3628C9.42038 100.299 12.951 104.772 17.8875 105.353C19.1492 105.502 20.3792 105.379 21.5231 105.035L71.2589 134.939L101.567 111.015Z"
		fill="#FFB6B6"
	/>
	<path
		d="M104.445 72.5244C106.236 73.2115 108.485 73.0285 110.358 72.9357C111.979 72.8554 113.563 73.6146 114.342 75.0884C114.668 75.7045 115.185 76.0229 115.537 76.6208C115.906 77.2485 116.247 77.897 116.604 78.532C117.488 80.1034 118.446 81.8441 118.399 83.7046C118.339 86.0991 117.137 88.2589 116.065 90.3061C115.671 91.0584 114.989 91.5678 114.559 92.2755C114.365 92.5946 114.321 92.9198 114.077 93.2224C113.715 93.6722 113.156 93.8904 112.81 94.3438C112.516 94.7291 112.42 95.1855 112.065 95.5292C111.698 95.8849 111.364 96.1575 111.046 96.5748C110.429 97.3842 110.107 98.2822 109.594 99.1419C109.062 100.032 108.464 100.913 107.913 101.795C107.285 102.801 106.357 103.546 105.731 104.522C104.802 105.972 103.62 107.311 102.626 108.743C101.986 109.664 101.929 110.963 101.526 112.015C101.333 112.52 100.394 112.423 100.233 112.917C100.067 113.428 100.008 114.227 99.9085 114.779C99.7955 115.404 100.053 116.471 99.5135 116.939C99.0094 117.376 98.4208 117.051 97.9918 116.735C97.698 116.517 97.2067 115.857 96.8254 116.227C96.5931 116.453 96.7401 117.684 96.7102 118.018C96.5988 119.263 95.7421 120.316 95.2188 121.441C94.6358 122.696 94.3027 122.264 93.3169 121.692C92.967 121.489 92.7044 121.495 92.4277 121.171C92.1713 120.871 92.005 120.378 91.81 120.03C91.3804 119.262 90.948 118.497 90.5169 117.73L87.6845 112.694L84.7987 107.563C84.1419 106.395 83.4881 105.225 82.8288 104.059C82.4999 103.477 82.1275 102.91 81.8646 102.295C81.6365 101.762 81.1779 100.905 81.1135 100.331C81.0175 99.4764 81.6708 97.8682 82.11 97.1804C82.5969 96.4178 83.1954 95.8173 83.65 95.0163C84.6219 93.3036 85.9974 91.9535 87.4813 90.6597C88.3566 89.8965 89.0878 89.0003 89.9451 88.2238C90.6763 87.5615 91.508 87.0215 92.2315 86.3491C93.5285 85.1436 94.8773 84.0095 96.208 82.8396C96.9722 82.1678 97.7214 81.484 98.4754 80.8035C99.3091 80.051 99.9689 79.1823 100.729 78.3577C101.368 77.6656 102.09 76.8701 102.523 76.048C103.074 75.0009 103.661 73.8743 104.337 72.9104"
		fill="#E6622E"
	/>
	<path
		d="M79.574 48.8839C90.9618 48.8839 100.193 39.6522 100.193 28.2644C100.193 16.8766 90.9618 7.64502 79.574 7.64502C68.1862 7.64502 58.9546 16.8766 58.9546 28.2644C58.9546 39.6522 68.1862 48.8839 79.574 48.8839Z"
		fill="#FFB6B6"
	/>
	<path
		d="M100.102 42.3508C97.8528 45.1637 95.9324 46.8128 92.834 47.9907C92.784 47.5624 92.7554 47.1269 92.7626 46.6914C92.3342 47.2768 91.913 47.8622 91.4775 48.4477C89.55 49.0402 87.1941 49.5042 84.1456 49.9755L82.6464 45.3992C82.4108 43.3289 83.7815 41.4227 85.3093 40.002C86.8371 38.5885 88.6219 37.3748 89.6713 35.5757C90.7208 33.7767 90.7065 31.0924 88.9574 29.9644C87.2369 28.8435 84.8738 29.7645 82.9319 29.1006C80.6902 28.3367 79.6408 25.5952 80.0121 23.2536C80.3833 20.9119 81.804 18.8916 83.1819 16.9711C79.9693 18.3704 75.1075 18.5489 70.3742 17.7136C70.5455 16.2358 70.1886 14.6866 69.2962 13.4944C69.2105 14.858 68.5751 16.1715 67.5756 17.0925C63.028 15.8717 58.9587 13.7014 57.1025 10.7743C57.9236 10.5602 58.7445 10.3389 59.5656 10.1247C59.33 8.43987 59.0943 6.76214 58.8588 5.08446C59.8582 5.57706 60.8649 6.07681 61.8715 6.56942C62.0642 5.99825 62.357 5.49855 62.7282 5.05588C63.5778 4.78463 64.4559 4.6204 65.3483 4.55617C65.6338 4.54188 65.9265 4.52759 66.2192 4.52759C66.6476 4.52759 67.0902 4.54188 67.5186 4.59186C66.9831 4.1064 66.4406 3.62805 65.9052 3.13549C65.8409 3.07836 65.7838 3.02124 65.7195 2.96411C66.6975 2.54292 67.7542 2.22165 68.7537 1.94322C73.1228 0.72956 77.649 -0.491211 82.1324 0.201269C84.9963 0.644349 87.8456 2.09272 89.7043 4.25284C91.3635 6.18121 93.7062 7.32392 96.1996 7.82861C97.3977 8.07112 98.5583 8.60717 99.5234 9.35366C98.9166 9.7463 98.274 10.089 97.6029 10.3603C98.8737 10.6673 100.137 10.9743 101.408 11.2884C102.593 12.8519 103.4 14.7152 104.014 16.5856C106.855 25.2026 105.77 35.2688 100.102 42.3508Z"
		fill="#2F2E41"
	/>
</svg>
