<svg xmlns="http://www.w3.org/2000/svg" width="384" height="294" fill="none"><g clip-path="url(#a)">
	<path fill="#3F3D56" d="M54.748 60.86a12.923 12.923 0 1 1 0-25.846 12.923 12.923 0 0 1 0 25.846Zm0-25.4a12.478 12.478 0 1 0 0 24.956 12.478 12.478 0 0 0 0-24.956ZM185.747 60.86a12.92 12.92 0 0 1-12.674-15.444 12.92 12.92 0 0 1 17.62-9.419 12.924 12.924 0 0 1-4.946 24.863Zm0-25.4a12.477 12.477 0 1 0 0 24.954 12.477 12.477 0 0 0 0-24.954Z"/>
	<path fill="#3F3D56" d="M233.062 30.866H7.94c-4.383.008-7.934 4.395-7.94 9.81v107.329c.006 5.414 3.557 9.8 7.94 9.81h225.122c4.383-.008 7.935-4.395 7.941-9.81V40.675c-.006-5.414-3.558-9.8-7.941-9.81v.001Zm7.008 117.139c-.005 4.778-3.139 8.65-7.006 8.655H7.94c-3.868-.006-7-3.877-7.006-8.655V40.675c.004-4.777 3.138-8.65 7.006-8.655h225.122c3.868.006 7.001 3.878 7.007 8.656l.001 107.329Z"/>
	<path fill="#F2F2F2" d="M56.5 74.034h-40v28h40v-28ZM112.5 74.034h-40v28h40v-28ZM168.5 74.034h-40v28h40v-28ZM224.5 74.034h-40v28h40v-28ZM56.5 115.034h-40v28h40v-28ZM112.5 115.034h-40v28h40v-28ZM168.5 115.034h-40v28h40v-28ZM224.5 115.034h-40v28h40v-28Z"/>
	<path fill="#E6622E" d="m85.824 142.871-9.442-13.04 2.572-1.862 7.228 9.981 27.658-28.416 2.275 2.215-30.29 31.122ZM142.324 101.871l-9.442-13.04 2.572-1.862 7.228 9.981 27.658-28.416 2.275 2.215-30.291 31.122Z"/>
	<path fill="#2F2E41" d="M54.918 0h-.684v47.995h.684V0ZM186.418 0h-.684v47.995h.684V0Z"/>
	<path fill="#3F3D56" d="M382.69 294.261H193.065a.688.688 0 1 1 0-1.372H382.69a.687.687 0 1 1 0 1.372Z"/>
	<path fill="#3F3D56" d="M382.69 295.261H193.065a.688.688 0 1 1 0-1.372H382.69a.687.687 0 1 1 0 1.372Z"/>
	<path fill="#E6622E" d="m30.325 101.871-9.443-13.04 2.572-1.862 7.228 9.981 27.659-28.416 2.275 2.215-30.291 31.122Z"/>
	<path fill="#FFB8B8" d="M328.124 186.393c.265-.079.536-.137.811-.174l10.95-22.25-3.343-5.011 6.903-6.034 8.679 10.62-17.676 25.724a5.247 5.247 0 0 1-1.09 5.869 5.243 5.243 0 0 1-5.874 1.056 5.253 5.253 0 0 1-3.066-5.121 5.248 5.248 0 0 1 3.706-4.679Z"/>
	<path fill="#CCC" d="M346.816 156.002c-.15.157-.321.292-.509.4l-11.203 6.495a2.251 2.251 0 0 1-3.161-.984l-5.45-11.512a2.237 2.237 0 0 1 .768-2.822l6.945-4.724a2.251 2.251 0 0 1 2.859.272l9.706 9.74a2.254 2.254 0 0 1 .043 3.135h.002Z"/>
	<path fill="#FFB8B8" d="m362.546 283.487-5.915 1.61-9.023-22.05 8.73-2.376 6.208 22.816Z"/>
	<path fill="#2F2E41" d="m351.948 284.554 11.406-3.104 1.954 7.181-18.589 5.058a7.445 7.445 0 0 1 5.228-9.137l.001.002Z"/>
	<path fill="#FFB8B8" d="M311.98 288.001h-6.13l-2.917-23.644h9.047v23.644Z"/>
	<path fill="#2F2E41" d="M301.472 286.249h11.822v7.444h-19.266a7.442 7.442 0 0 1 4.595-6.877 7.445 7.445 0 0 1 2.849-.567Z"/>
	<path fill="#FFB8B8" d="M318.439 135.006c6.782 0 12.28-5.498 12.28-12.281 0-6.782-5.498-12.28-12.28-12.28-6.783 0-12.281 5.498-12.281 12.28 0 6.783 5.498 12.281 12.281 12.281Z"/>
	<path fill="#2F2E41" d="M311.605 271.143h-8.377a2.255 2.255 0 0 1-2.25-2.111c-2.496-39.681-1.036-68.145 4.595-89.577.025-.094.055-.186.091-.276l.45-1.121a2.237 2.237 0 0 1 2.09-1.415h17.226a2.247 2.247 0 0 1 1.708.786l2.34 2.73c.045.053.088.107.129.164 10.55 14.713 20.006 43.477 30.956 82.139a2.242 2.242 0 0 1-1.479 2.759l-9 2.881a2.267 2.267 0 0 1-2.712-1.166l-23.362-48.454a1.744 1.744 0 0 0-1.849-.968 1.75 1.75 0 0 0-1.461 1.491l-6.866 50.193a2.255 2.255 0 0 1-2.229 1.945Z"/>
	<path fill="#CCC" d="M328.534 180.358h-.071l-20.925-.662a2.242 2.242 0 0 1-2.165-1.977c-2.65-21.47 4.622-27.222 7.873-28.7a1.72 1.72 0 0 0 1.006-1.371l.282-2.25c.047-.398.201-.775.444-1.093 5.097-6.603 12.057-8.717 15.75-9.389a2.245 2.245 0 0 1 2.626 1.925l.421 3.231c.043.308.166.6.357.846 10.629 13.896-1.212 34.413-3.694 38.385a2.26 2.26 0 0 1-1.904 1.055Z"/>
	<path fill="#E6622E" d="m321.949 207.195-15.809 3.046-.601-3.118 12.101-2.332-14.064-37.076 2.969-1.126 15.404 40.606Z"/>
	<path fill="#2F2E41" d="M343.215 124.108a48.884 48.884 0 0 0-9.752-10.21c-3.1-2.42-6.55-4.489-10.355-5.478-3.804-.989-8.009-.821-11.481 1.025-3.472 1.845-7.063 5.512-7.085 9.444-.007 1.264.315 2.973 1.559 2.754l.36.05 9.003-1.818 3.835 13.308c.269.935.631 1.98 1.518 2.379.836.375 1.8.021 2.65-.332.139-.058 1.334-2.741 1.334-2.741a.5.5 0 0 1 .862-.144l.71.888a1.002 1.002 0 0 0 1.166.3l14.683-6.13c.676-.282 1.432-.65 1.628-1.357.185-.681-.229-1.365-.635-1.938Z"/>
	<path fill="#FFB8B8" d="M326.582 210.876a5.37 5.37 0 0 0 .703-8.206l3.887-46.935-11.572 1.592-.22 45.6a5.4 5.4 0 0 0 7.2 7.95l.002-.001Z"/>
	<path fill="#CCC" d="M331.928 162.493c-.217 0-.432-.031-.64-.093l-12.423-3.654a2.24 2.24 0 0 1-1.34-1.081 2.243 2.243 0 0 1-.123-1.889l4.597-11.877a2.237 2.237 0 0 1 2.577-1.386l8.207 1.784a2.246 2.246 0 0 1 1.771 2.26l-.382 13.746a2.252 2.252 0 0 1-2.244 2.189v.001Z"/></g>
	<defs>
		<clipPath id="a"><path fill="#fff" d="M0 0h383.423v294.262H0z"/></clipPath>
	</defs>
</svg>
