<svg xmlns="http://www.w3.org/2000/svg" width="383" height="428" fill="none">
	<path fill="#9E616A" d="m249.176 403.794 12.198-1.223 1.088-47.633-18.004 1.805 4.718 47.051Z"/>
	<path fill="#2F2E41" d="m247.25 415.932 39.333-3.943-.049-.498a15.385 15.385 0 0 0-16.844-13.775h-.001l-24.024 2.408 1.585 15.808Z"/>
	<path fill="#3F3D56" d="M193.515 415.52c23.044 0 41.791-36.753 41.791-81.929a148.803 148.803 0 0 0-4.685-37.75 108.837 108.837 0 0 0-1.398-4.866c-7.64-24.616-20.989-39.313-35.708-39.313-23.043 0-41.791 36.753-41.791 81.929s18.748 81.929 41.791 81.929Zm0-161.858c13.59 0 26.541 14.526 33.799 37.908.486 1.552.947 3.158 1.372 4.774a146.776 146.776 0 0 1 4.62 37.242c0 44.078-17.85 79.934-39.791 79.934-21.94 0-39.791-35.856-39.791-79.929s17.85-79.929 39.791-79.929ZM246.442 417.008l46.112-4.711-.184-1.293-46.112 4.711.184 1.293Z"/>
	<path fill="#3F3D56" d="M183.399 382.138c8.756 0 15.359-20.871 15.359-48.547s-6.603-48.546-15.359-48.546c-8.755 0-15.358 20.87-15.358 48.546s6.603 48.547 15.358 48.547Zm0-95.093c6.425 0 13.359 17.796 13.359 46.546 0 28.751-6.934 46.547-13.359 46.547-6.424 0-13.358-17.796-13.358-46.547 0-28.75 6.934-46.546 13.358-46.546Z"/>
	<path fill="#CACACA" d="M181.768 344.512c-3.064 0-5.548-4.89-5.548-10.921s2.484-10.92 5.548-10.92 5.547 4.889 5.547 10.92-2.483 10.921-5.547 10.921Z"/>
	<path fill="#3F3D56" d="M97.575 416.531c23.764 0 43.096-37.339 43.096-83.234a149.674 149.674 0 0 0-4.625-37.599c-.472-1.798-.97-3.539-1.483-5.18-7.854-25.331-21.681-40.456-36.988-40.456-23.763 0-43.096 37.339-43.096 83.235 0 45.895 19.333 83.234 43.096 83.234Zm0-164.469c14.17 0 27.61 14.963 35.078 39.049a116.26 116.26 0 0 1 1.457 5.088 147.657 147.657 0 0 1 4.561 37.093c0 44.798-18.435 81.239-41.096 81.239-22.66 0-41.096-36.441-41.096-81.234 0-44.793 18.436-81.235 41.096-81.235Z"/>
	<path fill="#3F3D56" d="M87.46 381.844c8.755 0 15.358-20.87 15.358-48.546s-6.603-48.546-15.358-48.546c-8.756 0-15.359 20.87-15.359 48.546s6.603 48.546 15.359 48.546Zm0-95.092c6.424 0 13.358 17.796 13.358 46.546s-6.934 46.546-13.358 46.546c-6.425 0-13.359-17.796-13.359-46.546s6.934-46.546 13.359-46.546Z"/>
	<path fill="#CACACA" d="M85.828 344.218c-3.064 0-5.548-4.889-5.548-10.921 0-6.031 2.484-10.92 5.547-10.92 3.064 0 5.548 4.889 5.548 10.92 0 6.032-2.484 10.921-5.547 10.921ZM1 416.941h381a.997.997 0 0 0 1-1 .997.997 0 0 0-1-1H1a.998.998 0 0 0-.707 1.707.998.998 0 0 0 .707.293Z"/>
	<path fill="#9E616A" d="M243.364 32.386a10.056 10.056 0 0 1-7.476 13.485l-5.095 35.37-13.886-12.328 6.967-31.698a10.109 10.109 0 0 1 14.731-10.21 10.111 10.111 0 0 1 4.759 5.38Z"/>
	<path fill="#3F3D56" d="m193.842 171.439-89.414-.326v35.225l89.414 3.608v-38.507Z"/>
	<path fill="#9E616A" d="m214.22 413.176 12.134-1.751-.979-47.637-17.909 2.585 6.754 46.803Z"/>
	<path fill="#2F2E41" d="m212.823 425.384 39.125-5.646-.071-.495a15.388 15.388 0 0 0-17.426-13.031l-23.897 3.448 2.269 15.724Z"/>
	<path fill="#3F3D56" d="m270.204 290.911 1.302-.072-3.949-71.756h-80.895v1.305h79.659l3.883 70.523ZM261.663 416.722l.217 1.288-54.888 9.257-.217-1.287 54.888-9.258Z"/>
	<path fill="#3F3D56" d="M132.329 290.979c.49 1.573.951 3.178 1.384 4.817l1.364.15 42.448 4.718 97.246-9.789-101.162-5.222-40.001 5.163-1.279.163Z"/>
	<path fill="#2F2E41" d="M154.566 49.053s14.135-4.507 23.222 13.52c9.087 18.028 23.223 37.859 23.223 37.859l-8.078 1.803s-2.019-12.62-7.067-14.423l2.019 16.225s-60.58 18.929-87.841-1.802l1.009-6.31s-4.038.901-4.038 6.31l-3.03-2.705s3.03-5.408 12.117-12.619c5.964-4.733 8.014-13.737 8.718-19.367a22.22 22.22 0 0 1 6.044-12.763c6.039-6.248 17.042-12.89 33.702-5.728ZM206.046 245.701l1.972 7.026s39.736-9.639 44.913 15.283c5.177 24.921 12.276 102.052 12.276 102.052l-20.065 4.117-19.055-84.083-77.181-16.836 5.053-43.557 52.087 15.998Z"/>
	<path fill="#2F2E41" d="M172.631 257.263s53.517-11.096 57.433 15.663c3.916 26.759-1.958 77.666-2.61 78.971-.653 1.306 2.61 25.454 2.61 25.454l-23.495 3.263s-15.011-71.139-8.485-89.413l-44.158-2.732c-15.243-.943-27.696-12.984-28.573-28.231-.335-5.837 1.126-11.134 6.161-14.071 15.663-9.137 44.38-9.137 44.38-9.137l-3.263 20.233Z"/>
	<path fill="#A0616A" d="M147.177 114.163c-12.976 0-23.495-10.519-23.495-23.496 0-12.976 10.519-23.495 23.495-23.495 12.977 0 23.496 10.52 23.496 23.495 0 12.977-10.519 23.496-23.496 23.496Z"/>
	<path fill="#E4E4E4" d="m169.367 127.953 15.011-1.874 11.036 26.055s15.396 95.665 11.48 96.971a17.66 17.66 0 0 1-6.852.979l-74.093 3.857s-3.306-14.905-2-26c1.305-11.095-13.974-71.84-13.974-71.84l2.937-27.737 12.502-.23 9-7 25.047-.078 9.906 6.897Z"/>
	<path fill="#E4E4E4" d="m183.726 129.343.652-3.916 18.275-22.19 18.761-62.103 18 19-19.14 60.724-26.106 33.286-10.442-24.801Z"/>
	<path fill="#2F2E41" d="M178.044 93.477s-8.077-11.106-15.145-13.125c-7.068-2.02-8.077-12.117-8.077-12.117S136.648 88.43 125.541 89.44c-11.106 1.01-1.01-24.232-1.01-24.232l20.194-5.049 19.184 2.02 15.145 10.096-1.01 21.203Z"/>
	<path fill="#3F3D56" d="m102.469 252.391.632-26.782h60.736l1.941 71.81 1.305-.035-1.975-73.08h-63.269l-.021.631-.653 27.411 1.304.045ZM103.775 215.82h1.306v-49.818l-21.068 6.116.365 1.253 19.397-5.631v48.08Z"/>
	<path fill="#3F3D56" d="m94.638 164.913-13.706 5.221 2.61 7.179 11.096-4.569v-7.831ZM148.808 221.041v10.442h-38.885v-9.748l38.885-.694ZM248.665 215.82v10.442h-38.886v-9.749l38.886-.693ZM177.525 190.482h.317v-8.691a5.03 5.03 0 0 1 5.03-5.03h18.413a5.033 5.033 0 0 1 5.03 5.03v47.678a5.031 5.031 0 0 1-5.03 5.03h-18.413a5.029 5.029 0 0 1-5.03-5.03v-32.801h-.317v-6.186Z"/>
	<path fill="#D0CDE1" d="M191.92 194.652a3.08 3.08 0 1 1-.001-6.16 3.08 3.08 0 0 1 .001 6.16Z"/>
	<path fill="#000" d="m118.134 160.997 1.958 37.201 28.716 5.874-26.106-10.443-4.568-32.632Z" opacity=".15"/>
	<path fill="#9E616A" d="M186.091 226.631a10.067 10.067 0 0 1-8.494.501 10.054 10.054 0 0 1-5.837-6.191l-35.731-.53 10.452-15.349 32.328 2.856a10.116 10.116 0 0 1 11.953 6.122 10.108 10.108 0 0 1-4.671 12.591Z"/>
	<path fill="#E4E4E4" d="m120.092 132.933-5.874-4.569s-9.789-5.221-11.747 13.053c-1.958 18.275-16.317 78.972-1.958 79.624 14.358.653 67.902 2.093 67.902 2.093l2-18-52.933-4.978 2.61-67.223Z"/>
	<path fill="#E6622E" d="M233.998 30.265a3.205 3.205 0 0 0 1.889-.625l4.552-3.308a2.204 2.204 0 0 1 2.602 0l4.552 3.308a3.21 3.21 0 0 0 4.944-1.607c.21-.645.21-1.34.001-1.986l-1.739-5.35a2.207 2.207 0 0 1 .804-2.475l4.552-3.308a3.209 3.209 0 0 0 1.167-3.593 3.214 3.214 0 0 0-3.056-2.22h-5.626a2.207 2.207 0 0 1-2.106-1.53l-1.738-5.35a3.215 3.215 0 0 0-4.945-1.607 3.21 3.21 0 0 0-1.167 1.607l-1.739 5.35a2.21 2.21 0 0 1-2.105 1.53h-5.627a3.213 3.213 0 0 0-1.889 5.813l4.552 3.307a2.211 2.211 0 0 1 .804 2.475l-1.738 5.351a3.162 3.162 0 0 0 1.167 3.593 3.203 3.203 0 0 0 1.889.625Z"/>
</svg>
