<svg
				width="303"
				height="305"
				viewBox="0 0 303 305"
				fill="none"
				xmlns="http://www.w3.org/2000/svg"
			>
				<path
					d="M299.689 105.008L251.368 90.2158C250.299 89.8887 249.177 89.7693 248.064 89.8641L3.16169 110.707C-0.330149 111.004 -1.20771 115.714 1.94276 117.248L9.78742 121.07H9.57826V304.022H16.9702V124.57L41.556 136.547C43.4371 137.464 45.5364 137.838 47.6183 137.627L50.2342 137.363V304.022H57.6262V136.617L247.046 117.483V304.022H254.438V116.737L285.854 113.563V304.022H293.246V112.817L298.977 112.238C303.001 111.831 303.556 106.192 299.689 105.008Z"
					fill="#3F3D56"></path>
				<path
					d="M74.2583 109.982C78.8783 109.982 147.254 101.666 147.254 101.666L157.418 115.526L86.2703 129.386L74.2583 109.982Z"
					fill="white"></path>
				<path
					d="M149.301 296.917L137.422 296.895L131.85 251.064L149.383 251.096L149.301 296.917Z"
					fill="#A0616A"></path>
				<path
					d="M108.602 296.577C108.231 297.2 108.032 299.21 108.031 299.934C108.027 302.161 109.829 303.969 112.056 303.973L148.845 304.036C150.364 304.039 151.598 302.81 151.6 301.29L151.603 299.759C151.603 299.759 153.431 295.158 149.693 289.478C149.693 289.478 145.029 293.913 138.082 286.942L136.037 283.221L121.164 294.059L112.929 295.059C111.127 295.277 109.531 295.018 108.602 296.577Z"
					fill="#2F2E41"></path>
				<path
					d="M213.06 275.605L203.687 282.674L171.958 249.887L185.791 239.453L213.06 275.605Z"
					fill="#A0616A"></path>
				<path
					d="M180.789 299.615C180.868 300.327 181.911 302.029 182.342 302.601C183.667 304.357 186.165 304.707 187.922 303.382L216.947 281.487C218.145 280.583 218.384 278.878 217.48 277.68L216.568 276.471C216.568 276.471 215.264 271.756 208.931 269.51C208.931 269.51 207.901 275.786 198.27 274.438L194.439 272.726L189.185 290.137L183.293 295.837C182.004 297.084 180.591 297.832 180.789 299.615Z"
					fill="#2F2E41"></path>
				<path
					d="M188.232 38.7398C188.232 49.6946 179.352 58.5752 168.397 58.5752C157.442 58.5752 148.562 49.6946 148.562 38.7398C148.562 27.7849 157.442 18.9043 168.397 18.9043C179.352 18.9043 188.232 27.7849 188.232 38.7398Z"
					fill="#A0616A"></path>
				<path
					d="M186.364 153.107C186.364 153.107 113.332 148.973 109.198 157.241C105.064 165.508 131.546 279.074 131.546 279.074L155.173 274.122L143.647 194.446C143.647 194.446 204.59 210.586 212.858 191.294C221.126 172.003 218.746 164.819 218.746 164.819L186.364 153.107Z"
					fill="#2F2E41"></path>
				<path
					d="M205.075 139.229C205.075 139.229 133.551 154.561 131.752 163.628C129.952 172.695 185.533 275.21 185.533 275.21L207.008 264.184L174.816 190.395C174.816 190.395 237.858 189.838 240.728 169.047C243.598 148.256 239.402 141.958 239.402 141.958L205.075 139.229Z"
					fill="#2F2E41"></path>
				<path
					d="M213.234 61.4723H178.871L155.359 100.055C155.359 100.055 149.848 124.989 155.359 127.679C160.871 130.37 160.871 159.307 160.871 159.307L218.746 164.819C218.746 164.819 227.013 78.0078 224.257 69.7401C221.501 61.4723 213.234 61.4723 213.234 61.4723Z"
					fill="#E6622E"></path>
				<path
					d="M158.804 86.9646L155.359 127.679L116.612 111.235L107.364 106.584C105.553 104.222 103.202 102.328 100.509 101.061C93.8116 97.797 86.7015 98.6055 84.6249 102.866C82.5482 107.127 86.2923 113.226 92.9877 116.488C95.646 117.829 98.5868 118.513 101.564 118.484L128.622 133.852L128.654 133.792L128.774 134.006L171.206 151.729L180.969 98.2795L158.804 86.9646Z"
					fill="#A0616A"></path>
				<path
					d="M154.67 41.4919C154.67 41.4919 134.001 44.2478 142.269 26.3343C142.269 26.3343 141.008 16.6235 147.15 15.9671C153.292 15.3107 161.56 4.28699 161.56 4.28699C161.56 4.28699 180.515 -5.35873 190.329 4.28699C200.143 13.9327 229.08 70.4291 229.08 70.4291L209.789 91.0985C209.789 91.0985 198.191 60.6097 184.698 64.1414C171.206 67.6731 158.804 78.2031 158.804 78.2031C158.804 78.2031 145.111 71.3507 151.269 65.378C157.426 59.4054 154.67 41.4919 154.67 41.4919Z"
					fill="#2F2E41"></path>
				<path
					d="M182.23 71.8071C182.23 71.8071 172.584 59.4054 165.694 69.0511C158.804 78.6969 153.292 91.0985 153.292 91.0985L180.852 100.744L182.23 71.8071Z"
					fill="#E6622E"></path>
				<path
					d="M286.868 301.279L254.849 199.509L254.854 199.509H254.928L254.798 199.342L254.795 199.339L252.515 192.09L252.516 192.089C255.99 189.095 258.356 184.817 258.827 179.892L244.191 99.3933C245.198 88.8227 237.094 79.5827 226.478 79.2039L193.454 79.1207C184.066 78.7881 175.935 85.5702 174.568 94.8657L173.838 99.7998L163.72 168.628C163.35 171.105 163.498 173.544 164.08 175.826L156.799 176.778L154.591 177.074L145.859 178.21L145.831 178.22L144.741 178.358H143.558V207.926H143.632V302.433C143.632 303.042 144.131 303.541 144.741 303.541C145.36 303.541 145.859 303.042 145.859 302.433V207.926H158.813L171.74 302.322C171.823 302.876 172.294 303.283 172.849 303.283C172.895 303.283 172.951 303.283 172.997 303.273C173.607 303.19 174.032 302.627 173.948 302.017L161.068 207.926H223.225C229.397 207.926 235.116 205.968 239.773 202.614L264.417 302.149C264.545 302.652 264.998 302.987 265.495 302.987C265.586 302.987 265.678 302.976 265.77 302.953C266.366 302.801 266.726 302.195 266.575 301.6L241.692 201.103C242.023 200.827 242.354 200.533 242.666 200.229L252.559 199.647L284.745 301.947C284.894 302.422 285.333 302.727 285.806 302.727C285.917 302.727 286.029 302.71 286.14 302.675C286.727 302.49 287.053 301.865 286.868 301.279ZM250.4 193.669C250.483 193.623 250.557 193.567 250.631 193.521L250.869 194.276L250.4 193.669Z"
					fill="#E6E6E6"></path>
			</svg>
