<svg xmlns="http://www.w3.org/2000/svg" width="692" height="500" fill="none">
	<g clip-path="url(#a)">
		<path fill="#CCC" d="M691 496.043H1a.998.998 0 0 1-1-1 1 1 0 0 1 1-1h690a.997.997 0 0 1 1 1 .997.997 0 0 1-1 1Z" />
		<path fill="#CCC"
			d="M622.704 321.642h-406a6.499 6.499 0 0 0-4.596 11.096 6.5 6.5 0 0 0 4.596 1.904h11.5v155.5a6.5 6.5 0 0 0 13 0l.099-155.5h355.901v155.5a6.5 6.5 0 0 0 13 0V338.069l1.891-3.427h10.609a6.502 6.502 0 0 0 4.597-11.097 6.5 6.5 0 0 0-4.597-1.903Z" />
		<path fill="#3F3D56"
			d="M441.794 325.043H318.812a8.993 8.993 0 0 1-8.981-8.982v-67.709a8.988 8.988 0 0 1 8.981-8.982h122.982a8.993 8.993 0 0 1 8.982 8.982v67.709a8.993 8.993 0 0 1-8.982 8.982Z" />
		<path fill="#fff"
			d="M441.793 246.283h-122.98a2.072 2.072 0 0 0-2.07 2.07v67.71a2.075 2.075 0 0 0 2.07 2.07h122.98a2.074 2.074 0 0 0 2.07-2.07v-67.71a2.073 2.073 0 0 0-2.07-2.07Z" />
		<path fill="#2F2E41"
			d="M390.792 294.221s-14.722-3.392-22.82 2.827c-8.097 6.22 10.306 20.355 10.306 20.355l12.514-23.182Z" />
		<path fill="#FFB8B8"
			d="M381.024 290.811c7.67 0 13.887-6.217 13.887-13.887 0-7.669-6.217-13.887-13.887-13.887-7.669 0-13.887 6.218-13.887 13.887 0 7.67 6.218 13.887 13.887 13.887Z" />
		<path fill="#2F2E41"
			d="M370.286 257.43a9.895 9.895 0 0 1 9.126-4.856c1.905.239 3.764.759 5.516 1.544l9.078 3.541c2.349.917 4.922 2.039 5.941 4.346.946 2.14.24 4.612-.474 6.841l-3.397 10.593a32.298 32.298 0 0 0-1.924-6.998 10.842 10.842 0 0 0-4.705-5.364c-2.358-1.209-5.137-1.184-7.785-1.057-3.749.181-7.825.658-10.489 3.302a10.889 10.889 0 0 0-2.764 5.399 32.482 32.482 0 0 0-.58 6.112 50.562 50.562 0 0 1-3.869-8.295 20.533 20.533 0 0 1-1.438-6.715 9.444 9.444 0 0 1 2.164-6.387 6.2 6.2 0 0 1 6.231-1.961l-.631-.045Z" />
		<path fill="#E6622E"
			d="M414.183 306.263a2.471 2.471 0 0 0-2.07-1.79.912.912 0 0 0-.1-.06l-20.731-11.618a2.636 2.636 0 0 0-3.529.908l-5.67 9.18-8.54-8.54-.135-.136a2.64 2.64 0 0 0-3.377-.295l-17.038 11.931c-.03 0-.06.01-.09.01a3.632 3.632 0 0 0-3.03 3.39l-.44 8.89h68.04l-3.29-11.87Z" />
		<path fill="#3F3D56"
			d="M452.158 316.752H439.03a1.38 1.38 0 0 0-1.381-1.382h-4.146a1.383 1.383 0 0 0-1.382 1.382h-4.145a1.381 1.381 0 0 0-1.382-1.382h-4.145a1.38 1.38 0 0 0-1.382 1.382h-4.146a1.38 1.38 0 0 0-1.382-1.382h-4.145a1.383 1.383 0 0 0-1.382 1.382h-4.145a1.381 1.381 0 0 0-1.382-1.382h-4.145a1.38 1.38 0 0 0-1.382 1.382h-4.146a1.38 1.38 0 0 0-1.382-1.382h-4.145a1.381 1.381 0 0 0-1.382 1.382h-4.145a1.381 1.381 0 0 0-1.382-1.382h-4.146a1.383 1.383 0 0 0-1.381 1.382h-4.146a1.381 1.381 0 0 0-1.382-1.382h-4.145a1.381 1.381 0 0 0-1.382 1.382h-4.145a1.381 1.381 0 0 0-1.382-1.382h-4.146a1.383 1.383 0 0 0-1.381 1.382h-4.146a1.381 1.381 0 0 0-1.382-1.382h-4.145a1.381 1.381 0 0 0-1.382 1.382h-4.146a1.38 1.38 0 0 0-1.381-1.382h-4.146a1.383 1.383 0 0 0-1.382 1.382h-4.145a1.381 1.381 0 0 0-1.382-1.382h-4.145a1.381 1.381 0 0 0-1.382 1.382h-13.127a4.147 4.147 0 0 0 0 8.291h143.709a4.146 4.146 0 0 0 0-8.291Z" />
		<path fill="#F2F2F2"
			d="M287.079 292.678v27.526h-68.962a13.766 13.766 0 0 1-10.046-3.857 13.779 13.779 0 0 1 0-19.811 13.77 13.77 0 0 1 10.046-3.858h68.962Z" />
		<path fill="#E6622E"
			d="M288.773 319.992a1.062 1.062 0 0 1-1.059 1.059h-70.826a14.503 14.503 0 0 1 0-29.008h70.826a1.062 1.062 0 0 1 1.059 1.059 1.06 1.06 0 0 1-1.059 1.058h-70.826a12.39 12.39 0 0 0-12.375 12.387 12.386 12.386 0 0 0 12.375 12.386h70.826a1.063 1.063 0 0 1 1.059 1.059Z" />
		<path fill="#CCC"
			d="M287.079 299.03h-74.108a.204.204 0 0 1-.15-.061.217.217 0 0 1-.047-.069.225.225 0 0 1-.016-.081.23.23 0 0 1 .016-.082.229.229 0 0 1 .047-.069.201.201 0 0 1 .069-.045.205.205 0 0 1 .081-.016h74.108c.056 0 .109.023.149.062a.215.215 0 0 1 0 .299.21.21 0 0 1-.149.062ZM287.079 304.112h-74.108a.205.205 0 0 1-.081-.016.19.19 0 0 1-.069-.046.213.213 0 0 1-.047-.068.23.23 0 0 1-.016-.082c0-.028.006-.055.016-.081a.217.217 0 0 1 .197-.131h74.108a.213.213 0 0 1 0 .424ZM287.079 309.194h-74.108a.205.205 0 0 1-.081-.016.19.19 0 0 1-.069-.046.213.213 0 0 1-.047-.068.23.23 0 0 1-.016-.082c0-.028.006-.055.016-.081a.217.217 0 0 1 .116-.115.204.204 0 0 1 .081-.015h74.108a.21.21 0 0 1 .21.211.211.211 0 0 1-.21.212ZM287.079 314.276h-74.108a.225.225 0 0 1-.081-.016.217.217 0 0 1-.116-.115.225.225 0 0 1-.016-.081.23.23 0 0 1 .016-.082.213.213 0 0 1 .047-.068.19.19 0 0 1 .069-.046.205.205 0 0 1 .081-.016h74.108a.21.21 0 0 1 .21.212.213.213 0 0 1-.21.212Z" />
		<path fill="#F2F2F2"
			d="M274.079 263.678v27.526h-68.962a13.766 13.766 0 0 1-10.046-3.857 13.779 13.779 0 0 1 0-19.811 13.77 13.77 0 0 1 10.046-3.858h68.962Z" />
		<path fill="#3F3D56"
			d="M275.773 290.992a1.062 1.062 0 0 1-1.059 1.059h-70.826a14.503 14.503 0 0 1 0-29.008h70.826a1.062 1.062 0 0 1 1.059 1.059 1.06 1.06 0 0 1-1.059 1.058h-70.826a12.39 12.39 0 0 0-12.375 12.387 12.386 12.386 0 0 0 12.375 12.386h70.826a1.063 1.063 0 0 1 1.059 1.059Z" />
		<path fill="#CCC"
			d="M274.079 270.03h-74.108a.204.204 0 0 1-.15-.061.217.217 0 0 1-.047-.069.225.225 0 0 1-.016-.081.23.23 0 0 1 .016-.082.229.229 0 0 1 .047-.069.201.201 0 0 1 .069-.045.205.205 0 0 1 .081-.016h74.108c.056 0 .109.023.149.062a.215.215 0 0 1 0 .299.21.21 0 0 1-.149.062ZM274.079 275.112h-74.108a.205.205 0 0 1-.081-.016.19.19 0 0 1-.069-.046.213.213 0 0 1-.047-.068.23.23 0 0 1-.016-.082c0-.028.006-.055.016-.081a.217.217 0 0 1 .197-.131h74.108a.213.213 0 0 1 0 .424ZM274.079 280.194h-74.108a.205.205 0 0 1-.081-.016.19.19 0 0 1-.069-.046.213.213 0 0 1-.047-.068.23.23 0 0 1-.016-.082c0-.028.006-.055.016-.081a.217.217 0 0 1 .116-.115.204.204 0 0 1 .081-.015h74.108a.21.21 0 0 1 .21.211.211.211 0 0 1-.21.212ZM274.079 285.276h-74.108a.225.225 0 0 1-.081-.016.217.217 0 0 1-.116-.115.225.225 0 0 1-.016-.081.23.23 0 0 1 .016-.082.213.213 0 0 1 .047-.068.19.19 0 0 1 .069-.046.205.205 0 0 1 .081-.016h74.108a.21.21 0 0 1 .21.212.213.213 0 0 1-.21.212ZM354.303 418.043v-24a3.999 3.999 0 0 0-4-4h-91a4 4 0 0 0-4 4v24h99ZM354.303 427.043h-99v31h99v-31ZM255.303 467.043v24a4 4 0 0 0 4 4h91a4.004 4.004 0 0 0 4-4v-24h-99Z" />
		<path fill="#fff"
			d="M304.303 408.043a3 3 0 1 0 0-6 3 3 0 0 0 0 6ZM304.303 448.043a3 3 0 1 0 0-6 3 3 0 0 0 0 6ZM304.464 487.196a3 3 0 1 0 0-6 3 3 0 0 0 0 6Z" />
		<path fill="#F2F2F2"
			d="M343.079 362.678v27.526h-68.962a13.766 13.766 0 0 1-10.046-3.857 13.779 13.779 0 0 1 0-19.811 13.77 13.77 0 0 1 10.046-3.858h68.962Z" />
		<path fill="#3F3D56"
			d="M344.773 389.992a1.062 1.062 0 0 1-1.059 1.059h-70.825a14.498 14.498 0 0 1-14.516-14.504 14.493 14.493 0 0 1 4.252-10.26 14.498 14.498 0 0 1 10.264-4.244h70.825a1.058 1.058 0 1 1 0 2.117h-70.825a12.39 12.39 0 0 0-12.376 12.387 12.385 12.385 0 0 0 12.376 12.386h70.825a1.063 1.063 0 0 1 1.059 1.059Z" />
		<path fill="#CCC"
			d="M343.079 369.03h-74.108a.208.208 0 0 1-.196-.13.206.206 0 0 1 0-.163.209.209 0 0 1 .196-.13h74.108c.056 0 .11.023.149.062a.215.215 0 0 1 0 .299.208.208 0 0 1-.149.062ZM343.079 374.112h-74.108a.209.209 0 0 1-.15-.062.211.211 0 0 1-.063-.15c0-.028.006-.055.017-.081a.214.214 0 0 1 .196-.131h74.108a.213.213 0 0 1 .21.212.211.211 0 0 1-.21.212ZM343.079 379.194h-74.108a.209.209 0 0 1-.15-.062.211.211 0 0 1-.063-.15c0-.028.006-.055.017-.081a.214.214 0 0 1 .115-.115.208.208 0 0 1 .081-.015h74.108c.056 0 .11.022.149.062a.213.213 0 0 1-.149.361ZM343.079 384.276h-74.108a.214.214 0 0 1-.213-.212.211.211 0 0 1 .063-.15.209.209 0 0 1 .15-.062h74.108a.211.211 0 0 1 .149.361.213.213 0 0 1-.149.063ZM250.11 183.021V7.521A7.534 7.534 0 0 1 257.632 0H396.36a7.53 7.53 0 0 1 7.522 7.521v175.5a7.528 7.528 0 0 1-7.522 7.522H257.632a7.53 7.53 0 0 1-7.522-7.522Zm7.522-181.35a5.858 5.858 0 0 0-5.85 5.85v175.5a5.857 5.857 0 0 0 5.85 5.85H396.36a5.853 5.853 0 0 0 5.85-5.85V7.521a5.852 5.852 0 0 0-5.85-5.85H257.632Z" />
		<path fill="#E6622E"
			d="M334.775 80.598V44.562a3.765 3.765 0 0 1 3.761-3.76h30.537a3.765 3.765 0 0 1 3.761 3.76v36.036a3.765 3.765 0 0 1-3.761 3.76h-30.537a3.765 3.765 0 0 1-3.761-3.76Z" />
		<path fill="#CCC"
			d="M275.44 97.312V61.276a3.764 3.764 0 0 1 3.76-3.76h30.537a3.765 3.765 0 0 1 3.761 3.76v36.036a3.765 3.765 0 0 1-3.761 3.761H279.2a3.765 3.765 0 0 1-3.76-3.761Z" />
		<path fill="#3F3D56"
			d="M323.075 148.291v-36.036a3.77 3.77 0 0 1 3.761-3.761h30.537a3.765 3.765 0 0 1 3.761 3.761v36.036a3.765 3.765 0 0 1-3.761 3.76h-30.537a3.764 3.764 0 0 1-3.761-3.76ZM505.563 313.043h-31.42c-.298 0-.592.068-.86.2l-7.93 3.97a1.44 1.44 0 0 0-.88 1.33 1.451 1.451 0 0 0 .88 1.33l7.93 3.97c.268.132.562.201.86.2h31.42a1.647 1.647 0 0 0 1.74-1.53v-7.94a1.648 1.648 0 0 0-1.74-1.53Z" />
		<path fill="#E6622E"
			d="M507.303 314.573v7.94a1.646 1.646 0 0 1-1.74 1.53h-6.26v-11h6.26a1.647 1.647 0 0 1 1.74 1.53Z" />
		<path fill="#FFB8B8"
			d="M505.326 253.643a11.011 11.011 0 0 1 8.994.123 10.991 10.991 0 0 1 5.897 6.791c.14.471.247.95.32 1.435l43.938 21.788 10.168-6.738 12.652 14.565-15.526 12.61a11.148 11.148 0 0 1-13.301.513l-44.579-30.828c-.332.141-.671.264-1.015.37a10.998 10.998 0 0 1-8.922-1.143 11.004 11.004 0 0 1-5.251-8.757 11.037 11.037 0 0 1 6.625-10.729Z" />
		<path fill="#3F3D56"
			d="M596.841 387.792h-48.01c0 1.38-49.48 2.5-49.48 2.5a12.845 12.845 0 0 0-2.11 2 12.41 12.41 0 0 0-2.9 8v2a12.504 12.504 0 0 0 12.5 12.5h90a12.512 12.512 0 0 0 12.5-12.5v-2a12.515 12.515 0 0 0-12.5-12.5Z" />
		<path fill="#3F3D56" d="M544.617 498.295h13v-84h-13v84Z" />
		<path fill="#3F3D56"
			d="M507.617 497.838c0 1.405 19.7.544 44 .544 24.301 0 44 .861 44-.544 0-1.404-19.699-12.543-44-12.543-24.3 0-44 11.139-44 12.543Z" />
		<path fill="#FFB8B8" d="m519.353 487.993-12.259-.001-5.833-31.797 18.094.001-.002 31.797Z" />
		<path fill="#2F2E41"
			d="m522.48 499.877-39.531-.002v-.5a15.393 15.393 0 0 1 4.507-10.879 15.398 15.398 0 0 1 10.88-4.507h.001l24.144.001-.001 15.887ZM501.017 468.275l-24.441-54.808a20.085 20.085 0 0 1 8.818-25.784l53.014-28.428 24.191-2.057 22.314-2.029.161.273c.206.348 5.004 8.635 1.761 17.722-2.46 6.892-8.859 12.276-19.019 16.002-23.714 8.695-51.109 16.127-61.786 18.918a3.448 3.448 0 0 0-2.211 1.759 3.498 3.498 0 0 0-.197 2.799l22.707 51.015a4.501 4.501 0 0 1-3.81 6.029l-16.966 1.235a4.49 4.49 0 0 1-2.878-.705 4.486 4.486 0 0 1-1.658-1.941Z" />
		<path fill="#FFB8B8" d="m525.353 487.993-12.259-.001-5.833-31.797 18.094.001-.002 31.797Z" />
		<path fill="#2F2E41"
			d="m528.48 499.877-39.531-.002v-.5a15.393 15.393 0 0 1 4.507-10.879 15.398 15.398 0 0 1 10.88-4.507h.001l24.144.001-.001 15.887ZM508.017 471.275l-24.441-54.808a20.085 20.085 0 0 1 8.818-25.784l53.014-28.428 24.191-2.057 22.314-2.029.161.273c.206.348 5.004 8.635 1.761 17.722-2.46 6.892-8.859 12.276-19.019 16.002-23.714 8.695-51.109 16.127-61.786 18.918a3.448 3.448 0 0 0-2.211 1.759 3.498 3.498 0 0 0-.197 2.799l22.707 51.015a4.501 4.501 0 0 1-3.81 6.029l-16.966 1.235a4.49 4.49 0 0 1-2.878-.705 4.486 4.486 0 0 1-1.658-1.941Z" />
		<path fill="#CCC"
			d="M495.835 303.844a167.49 167.49 0 0 1-24.076-44.932 4.304 4.304 0 0 1 2.032-5.179l35.145-18.832a4.246 4.246 0 0 1 3.726-.151 4.329 4.329 0 0 1 2.461 2.884 102.331 102.331 0 0 0 22.446 41.891 4.319 4.319 0 0 1 1.038 3.646 4.236 4.236 0 0 1-2.19 3.019l-35.145 18.831a4.3 4.3 0 0 1-5.437-1.177Z" />
		<path fill="#fff"
			d="M498.233 302.042a1.296 1.296 0 0 0 1.622.335L535 283.545a1.24 1.24 0 0 0 .653-.897 1.318 1.318 0 0 0-.325-1.128 105.334 105.334 0 0 1-23.107-43.125 1.316 1.316 0 0 0-.758-.895 1.255 1.255 0 0 0-1.11.046l-35.145 18.832a1.296 1.296 0 0 0-.62 1.537 164.5 164.5 0 0 0 23.645 44.127Z" />
		<path fill="#E6622E"
			d="m612.592 298.821-27.524 10.459-6.72-18.666a11.168 11.168 0 0 1 19.264-10.715l14.98 18.922Z" />
		<path fill="#E6622E" stroke="#000"
			d="M542.872 372.373a4.498 4.498 0 0 1-1.876-3.194l-.497.053.497-.053c-3.52-32.864-1.06-58.522 7.468-78.484a24.487 24.487 0 0 1 16.185-13.881l22.07-1.114a25.508 25.508 0 0 1 13.952 27.008c-3.574 9.423-6.865 19.064-8.692 28.339-1.829 9.289-2.197 18.248.118 26.276v.001c.173.597.224 1.224.148 1.841a4.609 4.609 0 0 1-.584 1.752 4.37 4.37 0 0 1-2.797 2.073l-.002.001-42.378 10.081a4.47 4.47 0 0 1-3.612-.699Z" />
		<path fill="#FFB8B8"
			d="M579.396 266.884c13.565 0 24.561-10.996 24.561-24.561 0-13.564-10.996-24.561-24.561-24.561s-24.561 10.997-24.561 24.561c0 13.565 10.996 24.561 24.561 24.561Z" />
		<path fill="#CCC"
			d="m511.243 261.776-19.141 8.45a3.006 3.006 0 0 1-3.956-1.533l-.474-1.073a3.002 3.002 0 0 1 1.533-3.956l19.142-8.449a3.002 3.002 0 0 1 3.956 1.533l.473 1.072a3.002 3.002 0 0 1-1.533 3.956ZM518.243 274.776l-19.141 8.45a3.006 3.006 0 0 1-3.956-1.533l-.474-1.073a3.002 3.002 0 0 1 1.533-3.956l19.142-8.449a3.002 3.002 0 0 1 3.956 1.533l.473 1.072a3.002 3.002 0 0 1-1.533 3.956Z" />
		<path fill="#FFB8B8"
			d="m533.005 325.553-42.674-33.666c-.34.12-.686.222-1.036.306a11.023 11.023 0 0 1-8.818-1.691 10.924 10.924 0 0 1-4.627-7.734 11.023 11.023 0 0 1 7.209-11.638 11.009 11.009 0 0 1 14.427 7.837c.109.479.186.964.229 1.453l42.481 24.507 10.572-6.087 11.711 15.332-16.414 11.7a10.94 10.94 0 0 1-13.06-.319Z" />
		<path fill="#E6622E"
			d="m567.686 318.947-24.349-16.557 11.443-16.207a11.171 11.171 0 0 1 19.332 1.912 11.167 11.167 0 0 1 .491 7.731l-6.917 23.121Z" />
		<path fill="#2F2E41"
			d="M570.391 238.665c-6.313 4.321-14.601 8.762-21.049 4.161-4.233-3.021-5.567-8.616-3.85-13.525 3.087-8.829 11.569-12.715 19.68-15.695 10.545-3.873 22.026-6.954 32.911-4.18 10.886 2.773 20.506 13.313 18.541 24.373-1.58 8.894-9.97 16.295-8.779 25.249 1.199 9.012 11.334 13.756 20.281 15.367 8.948 1.611 18.961 2.128 25.391 8.555 8.203 8.199 6.155 22.853-1.564 31.51-7.719 8.656-19.367 12.58-30.654 15.247-14.954 3.534-31.129 5.392-45.332-.474-14.203-5.865-25.256-21.654-21.141-36.459 1.738-6.254 5.832-11.539 9.788-16.685 3.957-5.145 7.963-10.526 9.473-16.839 1.257-5.26.327-11.368-3.162-15.315a4.431 4.431 0 0 1-.594-5.186l.06-.104Z" />
		<path fill="#E6E6E6"
			d="M109.072 357.998a39.057 39.057 0 0 1-37.72-6.644c-13.213-11.09-17.355-29.359-20.726-46.275l-9.969-50.036 20.872 14.371c15.01 10.336 30.357 21.002 40.75 35.972 10.392 14.969 14.929 35.405 6.579 51.603" />
		<path fill="#F2F2F2"
			d="M107.288 418.577c2.112-15.387 4.285-30.972 2.803-46.525-1.316-13.812-5.53-27.303-14.109-38.364a63.818 63.818 0 0 0-16.374-14.837c-1.637-1.034-3.144 1.561-1.514 2.59a60.67 60.67 0 0 1 23.999 28.956c5.225 13.29 6.064 27.776 5.163 41.894-.544 8.537-1.698 17.018-2.861 25.489a1.555 1.555 0 0 0 1.048 1.845 1.513 1.513 0 0 0 1.845-1.048Z" />
		<path fill="#E6E6E6"
			d="M86.94 391.349a28.759 28.759 0 0 1-25.054 12.931c-12.683-.602-23.257-9.454-32.775-17.858L.958 361.565l18.633-.892c13.4-.641 27.145-1.239 39.907 2.893 12.763 4.132 24.533 14.077 26.867 27.287" />
		<path fill="#F2F2F2"
			d="M113.258 427.422c-10.168-17.991-21.961-37.986-43.035-44.377a48.027 48.027 0 0 0-18.1-1.869c-1.922.166-1.442 3.129.476 2.963a44.612 44.612 0 0 1 28.886 7.642c8.145 5.544 14.487 13.252 19.854 21.426 3.288 5.006 6.233 10.225 9.179 15.437.941 1.666 3.693.464 2.74-1.222Z" />
		<path fill="#F2F2F2"
			d="M129.55 446.359a21.773 21.773 0 0 0-13.343-18.236v-10.401H98.762v10.728a21.772 21.772 0 0 0-12.616 17.909l-4.102 47.684h51.608l-4.102-47.684Z" />
	</g>
	<defs>
		<clipPath id="a">
			<path fill="#fff" d="M0 0h692v499.877H0z" />
		</clipPath>
	</defs>
</svg>