<svg xmlns="http://www.w3.org/2000/svg" width="303" height="305" fill="none">
	<title>Chica sentada en pupitre estudiando</title>
  <path fill="#3F3D56" d="m300 105-49-15h-3L3 111c-3 0-4 5-1 6l8 4v183h7V125l25 12 6 1 2-1v167h8V137l189-20v187h7V117l32-3v190h7V113l6-1c4 0 5-6 1-7Z"/>
  <path fill="#fff" d="m74 110 73-8 10 14-71 13-12-19Z"/>
  <path fill="#A0616A" d="M149 297h-12l-5-46h17v46Z"/>
  <path fill="#2F2E41" d="m109 297-1 3c0 2 2 4 4 4h37c1 0 3-1 3-3v-1s1-5-2-11c0 0-5 5-12-2l-2-4-15 11-8 1c-2 0-3 0-4 2Z"/>
  <path fill="#A0616A" d="m213 276-9 7-32-33 14-11 27 37Z"/>
  <path fill="#2F2E41" d="m181 300 1 3c2 1 4 2 6 0l29-22v-5s-2-4-8-6c0 0-1 6-11 4l-4-1-5 17-6 6-2 4Z"/>
  <path fill="#A0616A" d="M188 39a20 20 0 1 1-39 0 20 20 0 0 1 39 0Z"/>
  <path fill="#2F2E41" d="M186 153s-73-4-77 4c-4 9 23 122 23 122l23-5-11-80s61 17 69-3c8-19 6-26 6-26l-33-12Z"/>
  <path fill="#2F2E41" d="M205 139s-71 16-73 25 54 111 54 111l21-11-32-74s63 0 66-21-2-27-2-27l-34-3Z"/>
  <path fill="#E6622E" d="M213 61h-34l-24 39s-5 25 0 28c6 2 6 31 6 31l58 6s8-87 5-95c-2-9-11-9-11-9Z"/>
  <path fill="#A0616A" d="m159 87-4 41-38-17-10-4c-1-3-4-5-6-6-7-3-14-2-16 2s1 10 8 13c3 2 6 3 9 2l27 16 42 18 10-54-22-11Z"/>
  <path fill="#2F2E41" d="M155 41s-21 3-13-15c0 0-1-9 5-10s15-12 15-12 19-9 28 0c10 10 39 66 39 66l-19 21s-12-30-25-27c-14 4-26 14-26 14s-14-7-8-13 4-24 4-24Z"/>
  <path fill="#E6622E" d="M182 72s-9-13-16-3l-13 22 28 10 1-29Z"/>
  <path fill="#E6E6E6" d="m287 301-32-101v-1l-2-7c3-3 5-7 6-12l-15-81c1-10-7-19-18-20h-33c-9 0-17 7-18 16l-1 5-10 69v7l-7 1h-2l-9 1h-2v124a1 1 0 0 0 2 0v-94h13l13 94 1 1 1-1-13-94h62c6 0 12-2 17-5l24 99a1 1 0 0 0 3 0l-25-101 1-1h10l32 102a1 1 0 1 0 2-1Zm-37-107h1-1Z"/>
</svg>