<svg xmlns="http://www.w3.org/2000/svg" width="226" height="369" fill="none"><path fill="#3F3D56" d="M222.89 300.939c-6.99-39.265-15.729-52.355-15.729-52.355l-3.338-3.008-4.015-3.622.019-.466-.952-.376-.223-.202-.367-.327-.059.074-.124.15-18.167-7.173-23.048-9.094-10.672-16.114c-1.738-2.624-3.976-4.745-6.538-6.197-2.562-1.452-5.379-2.194-8.229-2.17l-34.085.293c-4.608.04-9.037 2.081-12.416 5.721l-22.404 24.139-34.908 19.366-.059-.068-.367.304-5.393 2.996.222 1.346-3.338 2.798S9.962 269.135 2.97 305.67C1.193 314.966.318 334.908 0 359.481a10.724 10.724 0 0 0 .58 3.631 9.629 9.629 0 0 0 1.742 3.09 8.14 8.14 0 0 0 2.633 2.07c.988.48 2.047.728 3.117.728h209.725a7.12 7.12 0 0 0 3.115-.728 8.137 8.137 0 0 0 2.632-2.067 9.621 9.621 0 0 0 1.742-3.086c.399-1.153.597-2.386.583-3.628-.309-26.74-1.184-48.471-2.979-58.552Z"/><path fill="#9E616A" d="M119.758 185.185c24.662 0 44.654-23.223 44.654-51.87s-19.992-51.87-44.654-51.87c-24.661 0-44.653 23.223-44.653 51.87s19.992 51.87 44.653 51.87Z"/><path fill="#2F2E41" d="M108.335 182.645c-.191-.487-.381-.977-.571-1.468.073.002.146.015.219.017l.352 1.451ZM73.863 83.803c2.258-2.093 4.898-4.018 7.785-3.91 2.888.108 5.816 3.138 5.218 6.42 5.304-10.907 13.746-19.297 23.844-23.696 10.098-4.398 21.208-4.525 31.379-.357 7.176 2.942 14.214 8.826 15.863 17.456.423 2.215.514 4.644 1.705 6.443 1.501 2.268 4.374 2.781 6.739 1.984l.071-.025c.4-.158.831-.174 1.238-.044.407.129.772.397 1.047.77.274.373.446.832.493 1.32a2.78 2.78 0 0 1-.229 1.414l-2.03 4.4a14.08 14.08 0 0 0 7.752-.192 1.832 1.832 0 0 1 1.273.075c.408.176.758.496 1.003.913.246.417.374.913.367 1.418a2.724 2.724 0 0 1-.404 1.404c-6.696 10.679-17.882 17.574-29.298 17.493-8.113-.057-16.31-3.305-24.206-1.138-3.055.838-5.909 2.461-8.354 4.748-2.445 2.287-4.418 5.18-5.774 8.468-1.356 3.289-2.061 6.888-2.064 10.534-.003 3.646.698 7.246 2.049 10.537-2.426-3.082-7.115-2.352-9.596.67s-3.124 7.532-2.874 11.698c.383 6.371 2.532 12.375 4.797 18.219-18.995-.695-36.961-16.173-43.009-37.108-6.073-21.022.292-46.085 15.215-59.914Z"/><path fill="#000" d="m43.951 289.084 12.525 79.156 7.514.76-20.039-79.916ZM181.91 283.115l-12.524 85.067-7.515.818 20.039-85.885Z" opacity=".2"/><path fill="#E6622E" d="M84.545 57.164c-2.401 1.165-4.907-.112-5.958-3.035-1.067-2.968-.07-5.981 2.37-7.164 2.44-1.184 4.9.096 5.985 3.111 1.068 2.971.082 5.886-2.397 7.088Zm-4.6-16.041-1.91.926a1.795 1.795 0 0 1-1.494.034c-.485-.206-.885-.616-1.121-1.149l-.095-.215c-2.054-4.303-2.29-9.534-.695-15.539 1.477-5.386 2.09-9.174.856-12.605-1.426-3.968-4.472-5.21-8.356-3.41-1.506.73-1.985.719-3.17 2.085-.258.3-.566.538-.904.697-.339.16-.702.24-1.067.233a2.324 2.324 0 0 1-1.025-.257 2.671 2.671 0 0 1-.858-.702c-.467-.576-.729-1.335-.732-2.126-.003-.79.252-1.553.713-2.134 1.993-2.423 4.396-4.34 7.058-5.63C75.49-2.715 79.691 3.26 81.614 8.609c1.88 5.23.822 10.084-.877 16.369-1.424 5.223-1.341 9.093.276 12.94a2.73 2.73 0 0 1 .054 1.867c-.1.3-.25.573-.443.803-.193.23-.424.412-.679.535Z"/></svg>
