<svg xmlns="http://www.w3.org/2000/svg" width="200" height="380" fill="none" viewBox="0 0 214 496"><path fill="#FFB6B6" d="m107.507 480.918-13.886-.001-6.607-53.564 20.496.001-.003 53.564Z"/><path fill="#2F2E41" d="m107.996 495.404-42.703-.001v-.541a16.621 16.621 0 0 1 16.621-16.621l7.802-5.917 14.553 5.918h3.728l-.001 17.162Z"/><path fill="#FFB6B6" d="m204.84 455.374-11.359 7.986-36.214-40.015 16.766-11.789 30.807 43.818Z"/><path fill="#2F2E41" d="m213.573 466.942-34.932 24.562-.311-.442a16.622 16.622 0 0 1 4.036-23.156l.001-.001 2.977-9.328 15.309-3.529 3.05-2.144 9.87 14.038ZM162.835 214.441l1.154 2.465c7.584 16.203 9.523 34.316 6.576 51.962a2.945 2.945 0 0 0 .118 2.094c1.827 2.144-1.04 11.459-2.684 16.66l-1.482 9.197s2.457 8.542-1.275 7.915c-3.732-.628 1.825 8.483-1.734 10.766l-9.234 57.321 38.525 63.495-14.269 20.689-57.074-73.482-.713-66.349-8.561 53.507-.714 84.184-25.958-2.759L76 370.488l9.072-112.873 14.268-48.94 63.495 5.766Z"/><path fill="#FFB6B6" d="M2.074 194.845a7.742 7.742 0 0 1 10.776-.74c.309.27.594.565.854.882l25.44-9.098 9.158 11.284-36.196 8.696a7.721 7.721 0 0 1-9.418-.447 7.385 7.385 0 0 1-2.534-5.057 7.392 7.392 0 0 1 1.92-5.52Z"/><path fill="#E6622E" d="m145 67.488-21 1-10.042 17.349-14.269 4.28-12.128 29.964L95 213.488s1.491 5.65-1.254 4.825c-2.746-.825-1.627 6.256-1.627 6.256L82 263.488l92-8-5.108-41.235s7.102.229 2.108-4.765-7.423-3.403-2.625-9.307c4.797-5.904 5.51-10.184 5.51-10.184l2.141-29.251 3.528-41.165a39.549 39.549 0 0 0-14.943-34.458L145 67.488Z"/><path fill="#FFB6B6" d="M194.563 271.391a7.746 7.746 0 0 0-1.918-10.63 7.394 7.394 0 0 0-1.064-.613l2.6-26.892-13.181-6.12.421 37.223a7.72 7.72 0 0 0 2.737 9.023 7.378 7.378 0 0 0 5.523 1.22 7.405 7.405 0 0 0 4.882-3.211Z"/><path fill="#E6622E" d="M174.673 96.787s30.241 72.038 29.327 99.701l-10 51-14-1 1-46c5.108-5.222-16.271-34.719-23.318-55.478l16.991-48.223ZM101.116 89.404s-37.542 68.359-52.08 88.464L38 186.488v14l25.661.567s38.169-31.748 36.742-47.443c-1.427-15.695.713-64.208.713-64.208Z"/><path fill="#FFB6B6" d="M134.11 62.671c14.709 0 26.632-11.923 26.632-26.632 0-14.708-11.923-26.631-26.632-26.631-14.708 0-26.631 11.923-26.631 26.631 0 14.709 11.923 26.632 26.631 26.632Z"/><path fill="#2F2E41" d="M144.401 60.488c-7.643-.25-8.337-2.27-15.979-2.52-2.433-.08-5.305-.413-6.481-2.545-.838-1.518-.453-3.43.285-5a45.623 45.623 0 0 0 2.354-4.63 8.093 8.093 0 0 0-4.209-9.897 8.086 8.086 0 0 0-3.806-.768c-2.325.1-4.51 1.194-6.829 1.394-3.18.274-10.214-10.228-8.749-13.064 1.425-2.762 4.294-4.845 4.745-7.92.294-2.01-.536-4.009-.649-6.038-.168-3.01 7.459 3.775 6.062 1.105-3.426-6.55 28.863-14.672 34.179-6.466 1.987 3.066 5.528 2.857 8.684 4.699 2.068 1.207 7.291 5.371 8.479 7.967a20.211 20.211 0 0 1 1.512 8.361c.048 13.314-1.98 25.561-12.72 33.431"/></svg>
