<svg xmlns="http://www.w3.org/2000/svg" width="199" height="430" fill="none">
	<title>Hombre de espaldas con chaleco</title>
	<path fill="#A0616A" d="M178 219.6a7.7 7.7 0 0 1 4-11l-.4-27.5 12 7.6-1.4 25a7.8 7.8 0 0 1-14.2 6Z" />
	<path fill="#E6622E"
		d="M163.5 70.7a15.6 15.6 0 0 0-13 15c-.1 8 2.6 11 6.4 12.1 7 2 18.1 42.5 18.1 42.5s1.2 37.7 3 35.9c2-2-.2 2.4.4 3.8.6 1.3-2.7 3.3.4 4.8 3.2 1.5 1.2 13.5 1.2 13.5l14-1s-2.3-9.8.8-10.4c3.2-.6 1.8-3.4.5-5.5s2.2-5.1.5-6.1c-1.8-1 3.2-40 3.2-40l-19.5-57.5a15.6 15.6 0 0 0-16-7.1ZM121 73l10-17.7h13.7l10.2 18.6-33.9-1Z" />
	<path fill="#A0616A" d="M189.5 420.3h-9.1l-4.3-34.9h13.4v35Z" />
	<path fill="#2F2E41" d="M189.8 429.8h-27.9v-.4a10.8 10.8 0 0 1 10.9-10.8l5-3.9 9.5 3.9h2.5v11.2Z" />
	<path fill="#A0616A" d="M121.5 420.3h-9.1l-4.3-34.9h13.4v35Z" />
	<path fill="#2F2E41"
		d="M121.8 429.8H93.9v-.4a10.8 10.8 0 0 1 10.9-10.8l5-3.9 9.5 3.9h2.5v11.2ZM192.3 391.4c3.3-2.1 1.4-2 1.4-2s-7.4-59.8-13-78l-6.5-88.3s-.4 1.7 0-2.5c.4-4.3 3.4-1.3.4-4.3s-5-4.6-3-6.8 7.6-6.7 4.3-9.5c-3.3-2.7-9.7-20.6-9.7-20.6l-62.5.5 2.5-.5s-7.8-2.9-4.2.9c3.6 3.8-2 13-4 22-1.7 7.4-6.6 9.4 0 11 6.6 1.6.6 6 .6 6s-9.9 47.1-2.4 78.1c0 0 5.2 76.7 7.8 83.3 2.6 6.6 3.6 2.6 2.6 6.6-1 4-3-3-1 4 1.1 3.6 2 7.4 2.6 11.1l13.6-1s3.1-10 0-12.5c-3.2-2.6-1 5 2.4-.8s-.6-3.8-1.6-11.8 8.2-45.3 1.6-68.2l12.2-64.1 19.3 66.4s10.3 81.2 13.6 84c3.3 2.9 2-4 3.3 2.9 1.4 7 4.5 5.1 4.4 6-1 9.2 15.3.1 15.3.1v-7c.3-2.1-3.3-2.8 0-5Z" />
	<path fill="#3F3D56"
		d="M110 200.3c-4 0-15-5.4-13-7.7s2-10 2-12.1c0-2.2 9-83.2 9-83.2l-.7-19.8a8.9 8.9 0 0 1 8.9-9.2l8.8-3 25-1 12.5 4a7.2 7.2 0 0 1 6.4 10.5 65 65 0 0 1 9.6 36c-.3 9.4-5.1 21-6.3 31.7l-.2 2.8c0 .2-2 1.5 0 .8 2-.8-1.1 2 0 3.6 1 1.6 3 .6 0 2.6s3.7 21.3 3 22c-2 2-6 3-3 6s6 1 2 5-16 11-16 11h-48Z" />
	<path fill="#A0616A"
		d="M136.7 52.7a21.5 21.5 0 1 0 0-43 21.5 21.5 0 0 0 0 43ZM5.6 98a7.7 7.7 0 0 1 10.7 5.2l27.3 2.5-9 11.2-24.5-4.2a7.8 7.8 0 0 1-4.5-14.8Z" />
	<path fill="#E6622E"
		d="M135.2 82a15.6 15.6 0 0 0-15-13c-8.1-.2-11.1 2.5-12.2 6.3-2 7-34.2 31.6-34.2 31.6l-27.6-3c-1.7-.5-1-2-7.2-.8-3-2-5-1.6-6.8-.7L22 101.3l1 16s11-2.6 13 2 1.6 5.3 6 2 4 0 4 0l32 8 50-31.4a15.6 15.6 0 0 0 7.2-16Z" />
	<path fill="#2F2E41"
		d="m145 50.4 1.5.4c-4.4.4-12.3 2.9-11.5 1.5.8-1.4-2.1-6.5-.7-7.1a9 9 0 0 0 3.8-2.6c.9-1.3.9-3.4-.5-4.1-1.3-.8-2.9 0-4.2.8-1.3.7-3.7-10.4-3.1-14-3.7-2-8 1.9-12.2 1.2-2.5-.5-4.3-2.6-5.4-5 1.8-1.7 3.2-3.9 4-6.3-1.8.8-3.6 1.5-5.5 1.8a13 13 0 0 1 .1-5.5 9 9 0 0 1 5.6-6.3 6.5 6.5 0 0 1 7.6 2.8 6.4 6.4 0 0 0-4.1-6.4 6.8 6.8 0 0 1 9.8 4.6 21 21 0 0 1 14.5-1.5 38.9 38.9 0 0 1 11.3 6.6c11 2.4 10.4 44-11 39Z" />
</svg>