<svg xmlns="http://www.w3.org/2000/svg" width="724" height="466" fill="none"><path fill="#3F3D56" d="M707 269H17c-9 0-17-7-17-17V17C0 8 8 0 17 0h690c9 0 17 8 17 17v235c0 10-8 17-17 17ZM17 2C9 2 2 9 2 17v235c0 9 7 15 15 15h690c8 0 15-6 15-15V17c0-8-7-15-15-15H17Z"/><path fill="#FFB6B6" d="M310 278c0 7 5 13 9 13 5 0 9-7 8-15 0-3-1-6-3-8l-3-33-15 2 5 32c-1 3-2 6-1 9Z"/><path fill="#E6E6E6" d="M291 126s15-7 22 4 12 133 12 133l-20 2-4-86-10-53Z"/><path fill="#FFB6B6" d="M262 458h11l6-44h-17v44Z"/><path fill="#2F2E41" d="m301 458 1 3c0 2-2 4-4 4h-36c-1 0-2-1-2-3v-1s-2-5 1-10c0 0 5 4 12-3l2-3 14 10 8 1c2 1 4 0 4 2Z"/><path fill="#FFB6B6" d="m329 456 11-3-6-44-16 4 11 43Z"/><path fill="#2F2E41" d="m367 446 2 3c0 2-1 4-3 5l-35 9-3-2-1-1s-2-4 0-11c0 0 5 3 10-5l1-4 17 7 8-1h4Z"/><path fill="#FFB6B6" d="M252 117v-4l6-16 18-2 4 22h-28Z"/><path fill="#000" d="M252 117v-4l6-16 18-2 4 22h-28Z" opacity=".1"/><path fill="#2F2E41" d="m231 229-8 22 6 12 30 173h20l-4-153 46 153h20l-16-103-12-96-7-4-35-20-40 16Z"/><path fill="#E6E6E6" d="m282 244-12 2-16-38h36l-8 36Z"/><path fill="#2F2E41" d="m306 234-24 10-8-18-4 20-42-13 6-25-6-80 21-14 3-1 26 2 2 1 16 8 4 66 6 44Z"/><path fill="#E6E6E6" d="m280 116-11 47-20-49 3-1 26 2 2 1Z"/><path fill="#2F2E41" d="m261 113-4 6 4 3-2 41 8 11 8-16-6-36 2-9h-10Z"/><path fill="#FFB6B6" d="M267 109a19 19 0 1 0 0-38 19 19 0 0 0 0 38Z"/><path fill="#2F2E41" d="m255 91 4 2 2-11s7-3 12-1h15s0-18-13-18c-12 0-25 1-25 7 0 5-5 11-5 11s-7 10 0 17c7 8 11 8 11 8l-1-15Z"/><path fill="#FFB6B6" d="M218 277c0 8 4 14 9 14 5 1 9-6 9-13 0-3 0-6-2-9l1-33h-16l2 32-3 9Z"/><path fill="#E6E6E6" d="M237 124s-13-4-19 8 2 134 2 134h20l-5-86 2-56Z"/><path fill="#3F3D56" d="M446 243h-36c-3 0-5 2-5 5v15c0 3 2 5 5 5h36c3 0 5-2 5-5v-15c0-3-2-5-5-5Z"/><path fill="#E6622E" d="M521 258h-36c-3 0-5 2-5 5s2 5 5 5h36c3 0 5-2 5-5s-2-5-5-5Z"/></svg>
